<?xml version="1.0" standalone="no"?>
<!DOCTYPE svg PUBLIC "-//W3C//DTD SVG 20010904//EN"
 "http://www.w3.org/TR/2001/REC-SVG-20010904/DTD/svg10.dtd">
<svg version="1.0" xmlns="http://www.w3.org/2000/svg"
 width="442.000000pt" height="182.000000pt" viewBox="0 0 442.000000 182.000000"
 preserveAspectRatio="xMidYMid meet">

<g transform="translate(0.000000,182.000000) scale(0.100000,-0.100000)"
fill="#000000" stroke="none">
<path d="M1593 1460 c-288 -20 -626 -107 -853 -219 -46 -23 -89 -46 -95 -51
-6 -5 -55 -16 -110 -25 -108 -17 -199 -37 -282 -61 -64 -18 -71 -40 -49 -138
22 -95 21 -162 -4 -193 -11 -14 -20 -38 -20 -53 0 -15 -7 -33 -16 -41 -13 -10
-14 -24 -9 -68 9 -70 23 -98 74 -144 40 -36 56 -41 162 -51 67 -7 69 -4 69 87
0 106 33 193 102 272 167 190 464 176 620 -30 55 -73 71 -130 78 -275 l5 -125
47 -3 c31 -2 73 6 125 23 90 31 102 31 768 14 215 -5 515 -12 667 -16 l277 -6
5 24 c3 13 7 65 9 114 3 80 7 97 38 155 45 85 107 145 188 184 61 29 74 31
171 31 93 0 111 -3 163 -27 81 -38 161 -117 199 -197 28 -59 32 -78 36 -178
l5 -113 51 0 c93 0 276 78 276 117 0 8 -9 26 -20 40 -30 38 -26 86 10 126 26
31 30 42 30 97 0 59 -2 64 -47 117 -37 43 -65 63 -137 98 -223 106 -737 195
-1124 195 l-152 0 -188 96 c-103 53 -228 118 -279 145 -50 27 -120 56 -155 64
-77 19 -456 28 -635 15z m509 -64 c157 -31 530 -227 496 -262 -9 -8 -1076 -10
-1084 -1 -11 10 37 248 51 253 16 6 252 21 367 23 53 0 129 -5 170 -13z m-572
-23 c-1 -17 -59 -235 -64 -240 -6 -6 -211 40 -355 80 -80 22 -82 23 -57 35
100 45 257 96 391 125 34 8 85 7 85 0z m-1030 -314 c0 -6 -24 -34 -54 -64 -40
-40 -66 -57 -106 -69 -84 -25 -97 -22 -109 22 -6 20 -11 56 -11 80 l0 42 140
0 c92 0 140 -4 140 -11z m1060 -49 c0 -18 -7 -20 -75 -20 -56 0 -75 3 -75 13
0 23 11 27 82 27 61 0 68 -2 68 -20z m2588 -120 c62 -24 86 -39 111 -70 l32
-40 -33 0 c-27 1 -38 8 -60 40 -18 26 -46 48 -83 65 -48 23 -65 35 -51 35 2 0
40 -14 84 -30z"/>
<path d="M767 850 c-99 -25 -191 -103 -235 -198 -23 -49 -27 -70 -27 -147 1
-78 4 -98 29 -147 35 -73 100 -139 174 -175 50 -25 68 -28 147 -28 78 1 98 4
147 29 73 35 139 100 175 174 25 50 28 68 28 147 -1 78 -4 98 -29 149 -60 122
-166 194 -299 201 -39 3 -89 0 -110 -5z"/>
<path d="M3467 820 c-99 -25 -191 -103 -235 -198 -23 -49 -27 -70 -27 -147 1
-78 4 -98 29 -147 35 -73 100 -139 174 -175 50 -25 68 -28 147 -28 78 1 98 4
147 29 73 35 139 100 175 174 25 50 28 68 28 147 -1 78 -4 98 -29 149 -60 122
-166 194 -299 201 -39 3 -89 0 -110 -5z"/>
</g>
</svg>
