<svg width="164" height="98" viewBox="0 0 164 98" fill="none" xmlns="http://www.w3.org/2000/svg">
<path d="M38.6785 4.91103C41.3188 5.71136 65.1052 8.08054 82.055 8.1123C99.0048 8.08054 122.791 5.71103 125.432 4.91071C128.072 4.1104 137.824 0.909134 137.824 0.909134C137.824 0.909134 139.351 9.93069 141.605 15.277C144.104 21.2046 146.092 24.4025 150.301 29.2668C154.476 34.0906 162.779 39.8096 162.779 39.8096L155.229 79.3402L152.589 92.9456L147.308 96.9472C147.308 96.9472 146.554 95.9468 143.536 94.9464C140.519 93.946 136.181 94.2734 131.467 93.946C115.86 92.8621 97.67 92.9255 82.055 92.9459C66.4401 92.9255 48.2501 92.8624 32.6435 93.9463C27.9288 94.2737 23.591 93.9463 20.5735 94.9467C17.556 95.9471 16.8017 96.9475 16.8017 96.9475L11.5211 92.9459L8.88074 79.3405L1.33151 39.8099C1.33151 39.8099 9.63443 34.0909 13.8089 29.2671C18.0185 24.4028 20.0062 21.205 22.5052 15.2773C24.7592 9.93101 26.2863 0.909157 26.2863 0.909157C26.2863 0.909157 36.0382 4.11072 38.6785 4.91103Z" fill="black" stroke="black"/>
</svg>
