<svg width="174" height="62" viewBox="0 0 174 62" fill="none" xmlns="http://www.w3.org/2000/svg">
<path fill-rule="evenodd" clip-rule="evenodd" d="M33.933 52.6157C34.8152 51.9855 36.7309 50.574 37.3359 49.969C38.0921 49.2128 36.5797 46.5661 30.9082 43.5413C30.152 43.1379 27.1271 43.5413 24.8585 44.2975C22.2118 45.0537 15.1791 47.3979 8.22201 50.7252C7.46581 51.1033 6.7096 51.8595 6.3315 52.6157C6.02902 53.2207 5.9534 55.8926 5.9534 57.1529L2.55048 53.75C0.735583 50.7252 0.28186 49.4649 0.28186 49.2128V37.8697C0.28186 37.5672 0.785997 28.4172 1.03807 23.8799L2.17237 12.1587C3.68478 10.2682 6.3315 8.37772 6.7096 8.37772C7.59184 7.87358 10.7175 6.41159 16.1622 4.5967C21.6068 2.7818 27.2532 1.31981 29.3957 0.815671C30.0259 0.689637 31.3619 0.437568 31.6644 0.437568C31.9668 0.437568 32.7987 1.19377 33.1768 1.57188C34.4371 2.70618 37.4871 5.3529 39.6045 6.86531C42.2512 8.75582 46.4104 10.2682 47.9228 10.2682C49.1327 10.2682 98.8406 10.5203 123.543 10.6463C128.08 10.6695 129.971 9.89013 133.374 7.62152L137.155 4.9748L141.692 1.19377C142.297 0.891291 149.254 2.83222 152.657 3.84049C168.386 8.98268 172.318 12.5369 172.318 13.6712C172.697 18.3344 173.453 28.5684 173.453 32.1982C173.453 36.7354 173.831 41.2726 173.453 50.3471C173.453 52.162 169.294 57.279 167.403 59.4216V54.8843C167.403 53.3719 165.639 51.7335 164.756 51.1033C163.496 50.4731 159.992 48.8347 156.06 47.3223C152.128 45.8099 146.608 44.4235 144.339 43.9194C141.919 43.3144 137.785 46.44 136.021 48.0785C135.769 48.3306 135.264 48.9859 135.264 49.5909C135.264 50.8008 137.533 52.6157 138.667 53.3719L135.264 54.8843C134.508 55.2624 131.157 56.5323 130.349 56.7748C126.568 57.9091 113.207 61.2364 86.891 60.934C53.9961 60.5559 48.1768 58.1617 45.6542 57.531C44.1417 57.1529 38.4702 55.2624 35.0673 53.3719L33.933 52.6157ZM48.3356 46.5555C54.0811 47.1661 76.4332 47.5732 86.891 47.7004C123.934 47.3187 126.416 46.6924 126.958 46.5555C128.47 46.1738 132.137 43.9696 133.762 42.7391C135.778 41.2126 140.037 37.7015 140.944 35.8697C141.07 35.3608 140.944 34.1141 139.432 33.1982C135.274 30.5268 131.116 28.2369 126.958 27.4737C120.155 26.7104 102.011 25.9471 87.647 25.9471C73.2832 25.9471 47.5795 26.7104 43.7995 27.8553C40.7756 28.7712 37.7516 30.2723 36.6176 30.9084C35.8617 31.29 34.1229 32.2823 33.2158 33.1982C32.7118 33.7071 31.9306 35.0301 32.8378 36.2513C39.2637 43.1207 44.5556 46.1738 48.3356 46.5555ZM141.7 14.8797C145.102 16.0246 154.174 18.696 169.294 27.8553C169.786 28.1534 170.05 28.3896 170.05 27.4737C170.05 26.5577 169.955 25.5655 169.672 24.4206C168.916 21.3675 166.648 14.8797 163.624 12.5899C162.112 11.6994 158.559 9.76575 156.442 9.15513C154.3 8.39186 149.336 6.86531 146.614 6.86531C145.858 6.86531 145.242 7.10621 144.724 7.62858C143.968 8.39186 143.363 8.92615 140.944 12.5899C140.692 13.0987 140.491 14.2691 141.7 14.8797ZM32.0425 14.0493C28.6395 15.1836 19.5651 17.8303 4.44099 26.9047C3.94875 27.2001 3.68478 27.4341 3.68478 26.5266C3.68478 25.6192 3.77931 24.6361 4.06288 23.5018C4.81909 20.477 7.0877 14.0493 10.1125 11.7806C11.6249 10.8984 15.1791 8.98268 17.2965 8.37772C19.4391 7.62152 24.4048 6.10911 27.1271 6.10911C27.8833 6.10911 28.5001 6.34777 29.0176 6.86531C29.7739 7.62152 30.3788 8.15085 32.7987 11.7806C33.0507 12.2848 33.2524 13.4443 32.0425 14.0493Z" fill="black"/>
<path d="M0.28186 49.2128C0.28186 49.4649 0.735583 50.7252 2.55048 53.75L5.9534 57.1529C5.9534 55.8926 6.02902 53.2207 6.3315 52.6157C6.7096 51.8595 7.46581 51.1033 8.22201 50.7252C15.1791 47.3979 22.2118 45.0537 24.8585 44.2975C27.1271 43.5413 30.152 43.1379 30.9082 43.5413C36.5797 46.5661 38.0921 49.2128 37.3359 49.969C36.7309 50.574 34.8152 51.9855 33.933 52.6157L35.0673 53.3719C38.4702 55.2624 44.1417 57.1529 45.6542 57.531C48.1768 58.1617 53.9961 60.5559 86.891 60.934C113.207 61.2364 126.568 57.9091 130.349 56.7748C131.157 56.5323 134.508 55.2624 135.264 54.8843L138.667 53.3719C137.533 52.6157 135.264 50.8008 135.264 49.5909C135.264 48.9859 135.769 48.3306 136.021 48.0785C137.785 46.44 141.919 43.3144 144.339 43.9194C146.608 44.4235 152.128 45.8099 156.06 47.3223C159.992 48.8347 163.496 50.4731 164.756 51.1033C165.639 51.7335 167.403 53.3719 167.403 54.8843M0.28186 49.2128C0.28186 45.5578 0.28186 38.1722 0.28186 37.8697M0.28186 49.2128V37.8697M0.28186 37.8697C0.28186 37.5672 0.785997 28.4172 1.03807 23.8799L2.17237 12.1587C3.68478 10.2682 6.3315 8.37772 6.7096 8.37772C7.59184 7.87358 10.7175 6.41159 16.1622 4.5967C21.6068 2.7818 27.2532 1.31981 29.3957 0.815671C30.0259 0.689637 31.3619 0.437568 31.6644 0.437568C31.9668 0.437568 32.7987 1.19377 33.1768 1.57188C34.4371 2.70618 37.4871 5.3529 39.6045 6.86531C42.2512 8.75582 46.4104 10.2682 47.9228 10.2682C49.1327 10.2682 98.8406 10.5203 123.543 10.6463C128.08 10.6695 129.971 9.89013 133.374 7.62152L137.155 4.9748L141.692 1.19377C142.297 0.891291 149.254 2.83222 152.657 3.84049C168.386 8.98268 172.318 12.5369 172.318 13.6712C172.697 18.3344 173.453 28.5684 173.453 32.1982C173.453 36.7354 173.831 41.2726 173.453 50.3471C173.453 52.162 169.294 57.279 167.403 59.4216M167.403 59.4216C167.403 58.1612 167.403 55.4893 167.403 54.8843M167.403 59.4216V54.8843M86.891 47.7004C76.4332 47.5732 54.0811 47.1661 48.3356 46.5555C44.5556 46.1738 39.2637 43.1207 32.8378 36.2513C31.9306 35.0301 32.7118 33.7071 33.2158 33.1982C34.1229 32.2823 35.8617 31.29 36.6176 30.9084C37.7516 30.2723 40.7756 28.7712 43.7995 27.8553C47.5795 26.7104 73.2832 25.9471 87.647 25.9471C102.011 25.9471 120.155 26.7104 126.958 27.4737C131.116 28.2369 135.274 30.5268 139.432 33.1982C140.944 34.1141 141.07 35.3608 140.944 35.8697C140.037 37.7015 135.778 41.2126 133.762 42.7391C132.137 43.9696 128.47 46.1738 126.958 46.5555C126.416 46.6924 123.934 47.3187 86.891 47.7004ZM169.294 27.8553C154.174 18.696 145.102 16.0246 141.7 14.8797C140.491 14.2691 140.692 13.0987 140.944 12.5899C143.363 8.92615 143.968 8.39186 144.724 7.62858C145.242 7.10621 145.858 6.86531 146.614 6.86531C149.336 6.86531 154.3 8.39186 156.442 9.15513C158.559 9.76575 162.112 11.6994 163.624 12.5899C166.648 14.8797 168.916 21.3675 169.672 24.4206C169.955 25.5655 170.05 26.5577 170.05 27.4737C170.05 28.3896 169.786 28.1534 169.294 27.8553ZM4.44099 26.9047C19.5651 17.8303 28.6395 15.1836 32.0425 14.0493C33.2524 13.4443 33.0507 12.2848 32.7987 11.7806C30.3788 8.15085 29.7739 7.62152 29.0176 6.86531C28.5001 6.34777 27.8833 6.10911 27.1271 6.10911C24.4048 6.10911 19.4391 7.62152 17.2965 8.37772C15.1791 8.98268 11.6249 10.8984 10.1125 11.7806C7.0877 14.0493 4.81909 20.477 4.06288 23.5018C3.77931 24.6361 3.68478 25.6192 3.68478 26.5266C3.68478 27.4341 3.94875 27.2001 4.44099 26.9047Z" stroke="black" stroke-width="0.5"/>
</svg>
