<svg width="170" height="50" viewBox="0 0 170 50" fill="none" xmlns="http://www.w3.org/2000/svg">
<path d="M36.9475 25.7692C40.6089 26.0489 58.8922 25.5362 67.5762 25.7692H103.134C111.818 25.5362 130.101 26.0489 133.762 25.7692C140.24 24.9304 140.099 25.0702 142.916 20.8758C146.014 15.0036 149.487 5.72938 150.661 2.00103C151.717 1.6515 162.631 1.30197 163.687 1.30197C164.743 1.30197 165.799 0.602905 166.503 0.602905C167.067 0.602905 167.442 12.021 167.559 17.73C167.841 20.2466 169.085 25.0702 169.672 27.1674C169.672 29.4044 168.733 38.3524 168.264 42.5468C168.264 43.106 168.029 46.9742 167.911 48.8384C167.348 49.3976 167.207 48.3723 167.207 47.7898C166.644 45.2731 165.33 44.877 164.743 44.9935C159.814 45.6926 145.028 46.7412 133.762 47.0907L103.134 47.7898H67.5762L36.9475 47.0907C25.6818 46.7412 10.8956 45.6926 5.96681 44.9935C5.38005 44.877 4.06572 45.2731 3.50243 47.7898C3.50243 48.3723 3.36161 49.3976 2.79832 48.8384C2.68097 46.9742 2.44627 43.106 2.44627 42.5468C1.97687 38.3524 1.03806 29.4044 1.03806 27.1674C1.62481 25.0702 2.86873 20.2466 3.15038 17.73C3.26773 12.021 3.64325 0.602905 4.20654 0.602905C4.91065 0.602905 5.96681 1.30197 7.02297 1.30197C8.07913 1.30197 18.9928 1.6515 20.049 2.00103C21.2225 5.72938 24.6961 15.0036 27.7941 20.8758C30.6106 25.0702 30.4697 24.9304 36.9475 25.7692Z" fill="black" stroke="black" stroke-width="0.5"/>
</svg>
