<svg width="117" height="173" viewBox="0 0 117 173" fill="none" xmlns="http://www.w3.org/2000/svg">
<path d="M2.01929 164.82C2.00755 164.861 1.99708 164.897 1.98793 164.928L2.1224 164.96C2.21998 164.982 2.34118 165.011 2.48437 165.044C2.61853 165.076 2.772 165.112 2.94344 165.152C3.65228 165.317 4.66831 165.553 5.89701 165.837C8.35444 166.404 11.6624 167.16 15.0648 167.916C24.0676 169.917 33.5777 171.197 41.8932 172.073C46.0399 172.509 53.308 172.415 60.4456 172.117C67.5803 171.818 74.5718 171.316 78.1597 170.938C85.3442 170.182 94.0352 169.22 101.213 167.915C104.802 167.262 108.328 166.507 110.958 165.914C112.272 165.618 113.362 165.362 114.124 165.181C114.505 165.09 114.803 165.018 115.006 164.968C115.068 164.953 115.121 164.94 115.165 164.93C115.156 164.898 115.145 164.861 115.133 164.82C115.083 164.645 115.01 164.382 114.916 164.03C114.73 163.324 114.463 162.257 114.144 160.81C113.505 157.918 112.654 153.506 111.802 147.429C110.1 135.275 108.398 116.458 108.398 89.7952C108.398 63.1312 110.478 43.8398 112.559 31.2122C113.599 24.8984 114.64 20.2507 115.421 17.1803C115.811 15.6451 116.137 14.5043 116.365 13.7467C116.479 13.3679 116.569 13.085 116.63 12.8965C116.647 12.8437 116.662 12.7983 116.675 12.7602L116.629 12.746L116.079 12.5768C115.604 12.4306 114.921 12.2209 114.091 11.9669C112.431 11.4589 110.183 10.7736 107.828 10.0648C103.115 8.64605 97.9863 7.13591 96.2918 6.75933C95.8007 6.6502 95.0138 6.4476 93.977 6.18067C87.7979 4.58977 72.7416 0.71328 58.514 0.713263C43.2072 0.713244 25.9726 5.20138 20.985 6.50023C20.5591 6.61115 20.2225 6.6988 19.984 6.75842C18.477 7.13519 13.5672 8.64571 9.02737 10.0644C6.75896 10.7732 4.58504 11.4584 2.97821 11.9665C2.1748 12.2205 1.51317 12.4302 1.0524 12.5764L0.519279 12.7456L0.477234 12.759C0.489929 12.7973 0.505005 12.8431 0.522354 12.8965C0.583611 13.085 0.673294 13.3679 0.787331 13.7467C1.01541 14.5043 1.34092 15.6451 1.73137 17.1803C2.51226 20.2507 3.55291 24.8984 4.59338 31.2122C6.6743 43.8398 8.75446 63.1312 8.75446 89.7952C8.75446 116.458 7.05261 135.275 5.35012 147.429C4.49888 153.506 3.64747 157.918 3.00855 160.81C2.6891 162.257 2.42277 163.324 2.23614 164.03C2.14282 164.382 2.06944 164.645 2.01929 164.82Z" fill="black" stroke="black" stroke-width="0.3"/>
</svg>
