<svg width="126" height="75" viewBox="0 0 126 75" fill="none" xmlns="http://www.w3.org/2000/svg">
<path d="M1.47699 39.6626L2.21167 1.45946C2.44817 1.5257 2.73851 1.6067 3.05875 1.69535C3.89524 1.92691 4.93891 2.21157 5.75936 2.42154C9.40006 3.35328 11.5731 3.77164 14.9799 4.42753C15.4222 4.51269 15.8854 4.60185 16.3752 4.69666C16.9385 4.80569 17.4855 4.91242 18.0185 5.01643C21.5113 5.69799 24.4055 6.26273 27.38 6.59322C28.2641 6.69146 32.6514 6.76185 38.7567 6.80895C44.8848 6.85622 52.7909 6.87986 60.7555 6.87986C76.6686 6.87986 92.8593 6.78572 95.5292 6.59501C99.302 6.32553 100.793 6.01175 102.683 5.61382C103.462 5.44983 104.309 5.27156 105.412 5.0762C109.122 4.41872 111.21 4.03164 114.89 3.1805C116.608 2.78299 118.789 2.21396 120.537 1.7454C121.411 1.5109 122.179 1.30117 122.728 1.15006C122.823 1.12399 122.911 1.09966 122.992 1.07725L124.094 38.9155C124.023 38.9223 123.944 38.9298 123.858 38.938C123.409 38.9809 122.766 39.043 121.988 39.1199C120.434 39.2736 118.34 39.4864 116.187 39.723C114.035 39.9595 111.82 40.2201 110.023 40.4692C109.125 40.5936 108.327 40.7159 107.692 40.8314C107.073 40.9439 106.563 41.0576 106.273 41.1737C105.6 41.443 105.207 41.5838 104.918 41.6874C104.802 41.7289 104.703 41.7645 104.609 41.7999C104.262 41.9307 104.044 42.0426 103.55 42.3464C103.367 42.4592 103.186 42.553 102.998 42.6504L102.982 42.6583C102.804 42.7504 102.612 42.8496 102.432 42.9635C102.042 43.2098 101.687 43.537 101.459 44.095C101.27 44.5561 101.282 45.1337 101.318 45.5311C101.337 45.7421 101.366 45.9288 101.39 46.0628C101.401 46.13 101.412 46.1847 101.42 46.2233C101.422 46.2332 101.424 46.2421 101.426 46.2499C101.427 46.2572 101.429 46.2635 101.43 46.2689L101.433 46.2819L101.434 46.2859L101.434 46.2872L101.434 46.2877L101.434 46.2879C101.434 46.288 101.434 46.2881 101.921 46.1751L101.434 46.2881L101.451 46.3595L101.487 46.4232L104.512 51.7166L104.641 51.9429L104.901 51.9665L125.044 53.7977C124.958 54.0257 124.852 54.3098 124.73 54.6375C124.399 55.524 123.95 56.7296 123.477 58.0062C122.533 60.5549 121.49 63.4 121.108 64.5441C120.384 66.7168 119.08 68.4694 117.42 70.4286C116.659 71.3274 116.127 71.944 115.47 72.4381C114.824 72.9237 114.034 73.3067 112.749 73.674C112.75 73.6737 112.741 73.6762 112.717 73.6805C112.711 73.6818 112.703 73.683 112.695 73.6844C112.676 73.6874 112.654 73.6908 112.627 73.6943C112.551 73.7046 112.451 73.7153 112.324 73.7264C112.072 73.7485 111.732 73.7706 111.307 73.7926C110.458 73.8364 109.286 73.8787 107.836 73.9193C104.936 74.0004 100.933 74.0742 96.1957 74.1392C86.7217 74.2692 74.317 74.3637 61.9351 74.4109C49.5532 74.4582 37.1958 74.4582 27.8164 74.3991C23.1264 74.3696 19.1829 74.3253 16.3539 74.2648C14.9388 74.2346 13.8059 74.2003 12.999 74.1621C12.595 74.1429 12.2775 74.1229 12.0491 74.1024C11.9345 74.0921 11.8478 74.0822 11.7864 74.073C11.7501 74.0675 11.7311 74.0635 11.7245 74.0622C10.161 73.4327 9.46063 72.5494 8.20863 70.9706C8.0747 70.8017 7.93446 70.6248 7.78617 70.4395C6.6915 69.0711 6.30725 67.9698 5.78871 66.4835C5.62121 66.0034 5.43969 65.4832 5.21569 64.9008C4.27019 62.4425 3.13569 59.5117 2.23765 57.1957C1.78861 56.0376 1.39865 55.0332 1.12096 54.3183L0.917537 53.7947L20.2982 51.9664L20.5339 51.9441L20.6661 51.7477L20.4534 51.6046C20.6661 51.7477 20.6661 51.7476 20.6661 51.7476L20.6663 51.7474L20.6667 51.7468L20.6683 51.7444L20.6745 51.7351L20.6984 51.6995C20.7192 51.6683 20.7497 51.6226 20.7885 51.5641C20.8661 51.4472 20.977 51.2792 21.1108 51.0741C21.3781 50.6642 21.7374 50.105 22.1043 49.5095C22.4705 48.9149 22.8474 48.279 23.1485 47.7168C23.4377 47.1768 23.6928 46.6408 23.7663 46.2732C23.813 46.04 23.8559 45.8581 23.893 45.701C23.8994 45.6739 23.9057 45.6475 23.9117 45.6217C23.9508 45.4551 23.9884 45.2894 24.0013 45.128C24.0315 44.7505 23.9222 44.459 23.7233 44.061C23.4676 43.5497 23.0332 43.2313 22.5981 42.9897C22.3795 42.8683 22.1458 42.7584 21.9188 42.6532C21.8922 42.6409 21.8656 42.6286 21.8391 42.6163C21.6352 42.522 21.4353 42.4296 21.2353 42.3271C20.0721 41.7317 19.3886 41.5632 18.1941 41.2688C18.0464 41.2324 17.8909 41.1941 17.7258 41.1528C17.5006 41.0965 17.066 41.0343 16.5152 40.968C15.9515 40.9001 15.2325 40.8244 14.4157 40.7445C12.7815 40.5846 10.7464 40.4071 8.76062 40.2416C6.77438 40.0761 4.83564 39.9224 3.39359 39.8102C2.67252 39.754 2.07556 39.7082 1.65882 39.6764L1.47699 39.6626Z" fill="black" stroke="black"/>
</svg>
