<?xml version="1.0" standalone="no"?>
<!DOCTYPE svg PUBLIC "-//W3C//DTD SVG 20010904//EN"
 "http://www.w3.org/TR/2001/REC-SVG-20010904/DTD/svg10.dtd">
<svg version="1.0" xmlns="http://www.w3.org/2000/svg"
 width="368.000000pt" height="172.000000pt" viewBox="0 0 368.000000 172.000000"
 preserveAspectRatio="xMidYMid meet">

<g transform="translate(0.000000,172.000000) scale(0.100000,-0.100000)"
fill="#000000" stroke="none">
<path d="M765 1620 c-59 -13 -96 -28 -135 -58 -33 -25 -43 -27 -153 -31 l-119
-3 28 -30 c18 -18 25 -32 18 -36 -19 -13 -95 -115 -116 -156 -12 -23 -33 -72
-48 -111 -25 -64 -30 -70 -67 -82 -85 -29 -102 -73 -103 -259 0 -108 2 -125
25 -169 13 -27 22 -51 20 -55 -6 -10 14 -152 26 -182 6 -15 30 -43 54 -62 l43
-36 6 54 c16 125 104 242 224 299 61 29 76 32 162 32 86 0 101 -3 162 -32 86
-40 151 -106 191 -191 26 -57 32 -80 34 -156 1 -49 4 -90 5 -91 2 -2 50 6 108
17 96 19 155 21 687 25 485 4 605 2 717 -11 74 -9 153 -16 174 -16 l39 0 5 85
c10 153 90 274 222 336 231 108 498 -26 548 -276 l10 -54 33 16 c45 22 63 55
45 87 -8 16 -10 38 -5 63 4 21 9 82 12 135 l4 97 -30 16 c-19 9 -33 26 -37 43
-14 56 -47 112 -78 131 -62 38 -312 93 -528 116 -84 9 -163 19 -175 21 -12 2
-59 34 -105 72 -249 202 -464 328 -604 354 -46 8 -83 23 -116 45 -79 55 -114
59 -493 53 l-340 -6 298 -2 c234 -2 305 -5 332 -16 65 -27 43 -38 -57 -29
-128 11 -725 8 -823 -4 -44 -6 -82 -9 -84 -6 -3 2 5 14 17 26 21 20 35 22 170
28 140 5 142 5 42 7 -58 1 -127 4 -155 7 -27 2 -68 0 -90 -5z m714 -103 c10
-13 61 -287 61 -332 0 -12 -11 -32 -24 -44 l-25 -23 -339 8 c-313 8 -342 10
-361 28 -28 26 -27 35 18 130 46 95 117 188 163 212 54 28 486 46 507 21z
m400 -12 c185 -27 245 -46 375 -119 82 -46 296 -242 296 -272 0 -43 -16 -46
-207 -35 -98 6 -265 16 -371 21 -202 12 -227 16 -253 46 -16 18 -42 119 -60
235 -4 31 -13 68 -19 84 -9 22 -7 31 6 46 22 24 25 24 233 -6z m-1174 -35 c8
-12 -188 -236 -233 -266 -22 -15 -55 -24 -104 -29 -40 -3 -81 -9 -90 -11 -27
-8 -22 22 16 103 34 70 98 165 127 190 13 11 48 14 226 21 28 1 55 -3 58 -8z
m-337 -346 c12 -4 22 -9 22 -13 0 -4 -21 -32 -47 -62 -25 -30 -66 -84 -89
-121 -24 -38 -46 -68 -49 -68 -3 0 -5 52 -5 115 0 140 9 155 93 155 28 0 62
-3 75 -6z m570 -81 c-3 -16 -18 -18 -111 -21 -102 -3 -107 -2 -107 18 0 19 6
20 111 20 100 0 110 -2 107 -17z m957 -43 c0 -12 -20 -16 -107 -18 -86 -2
-108 0 -108 11 0 25 13 28 114 25 82 -2 101 -6 101 -18z m1469 -21 c86 -17
143 -66 162 -143 6 -26 5 -28 -17 -21 -54 17 -141 67 -198 115 -88 73 -85 76
53 49z m-480 -61 c27 -39 20 -48 -36 -48 -85 0 -125 55 -45 63 23 2 47 4 54 5
6 1 19 -8 27 -20z"/>
<path d="M530 677 c-62 -17 -109 -48 -159 -102 -63 -69 -84 -124 -85 -225 -1
-73 3 -93 27 -146 34 -73 92 -133 167 -171 47 -23 67 -27 140 -28 73 0 94 4
146 28 73 34 133 92 171 167 23 47 27 67 28 140 0 73 -4 94 -29 147 -34 74
-104 144 -173 174 -60 26 -172 33 -233 16z"/>
<path d="M3050 677 c-62 -17 -109 -48 -159 -102 -63 -69 -84 -124 -85 -225 -1
-73 3 -93 27 -146 34 -73 92 -133 167 -171 47 -23 67 -27 140 -28 73 0 94 4
146 28 73 34 133 92 171 167 23 47 27 67 28 140 0 73 -4 94 -29 147 -34 74
-104 144 -173 174 -60 26 -172 33 -233 16z"/>
</g>
</svg>
