<?xml version="1.0" standalone="no"?>
<!DOCTYPE svg PUBLIC "-//W3C//DTD SVG 20010904//EN"
 "http://www.w3.org/TR/2001/REC-SVG-20010904/DTD/svg10.dtd">
<svg version="1.0" xmlns="http://www.w3.org/2000/svg"
 width="388.000000pt" height="152.000000pt" viewBox="0 0 388.000000 152.000000"
 preserveAspectRatio="xMidYMid meet">

<g transform="translate(0.000000,152.000000) scale(0.100000,-0.100000)"
fill="#000000" stroke="none">
<path d="M985 1344 c-105 -5 -306 -23 -435 -40 -63 -8 -141 -14 -173 -14 l-58
0 24 -32 25 -32 -33 -40 c-77 -96 -127 -218 -148 -361 -9 -63 -17 -87 -39
-113 -26 -31 -28 -38 -28 -126 0 -83 3 -99 30 -153 41 -81 109 -130 201 -143
120 -18 116 -20 121 58 9 126 86 235 204 289 77 35 191 35 266 0 79 -37 133
-89 170 -165 30 -61 33 -75 33 -159 0 -83 2 -93 20 -98 11 -3 243 -10 515 -15
272 -6 633 -13 802 -16 l307 -7 5 24 c2 13 10 65 16 114 17 138 80 229 198
287 59 29 76 33 152 33 71 0 94 -4 141 -26 79 -37 133 -90 171 -166 26 -53 32
-80 36 -149 l5 -84 36 0 c75 1 179 18 214 35 38 18 49 49 26 72 -8 8 -8 21 2
50 19 57 17 163 -4 193 -9 13 -17 36 -17 49 0 14 -11 41 -23 60 -13 20 -32 49
-41 64 -21 34 -76 60 -246 115 -213 69 -357 103 -465 109 l-100 6 -130 86
c-71 48 -175 112 -230 143 -261 148 -264 148 -960 152 -286 2 -551 2 -590 0z
m541 -44 l193 0 5 -52 c19 -200 24 -263 21 -266 -2 -3 -120 3 -262 12 -381 24
-375 23 -384 38 -10 15 -10 188 0 233 6 29 8 30 76 36 39 4 90 5 114 3 24 -2
131 -4 237 -4z m-526 -22 c-1 -7 -16 -65 -34 -128 l-34 -115 -52 -3 c-41 -2
-65 3 -115 27 -70 32 -110 80 -125 148 -11 45 -3 52 60 54 25 0 81 6 125 14
109 17 175 18 175 3z m992 2 c40 -6 115 -14 167 -20 92 -9 96 -10 215 -81 183
-110 296 -188 308 -215 20 -43 4 -47 -144 -35 -73 6 -227 15 -343 21 -115 6
-224 13 -241 15 -33 6 -54 36 -54 80 0 14 -11 68 -25 122 -14 54 -25 104 -25
111 0 15 43 16 142 2z m-1466 -302 c17 -16 24 -32 21 -42 -5 -14 -29 -16 -162
-16 -171 0 -171 0 -139 61 l15 31 119 -4 c114 -3 121 -4 146 -30z m702 -115
c3 -22 1 -23 -82 -23 -77 0 -86 2 -86 18 0 30 10 33 90 30 69 -3 75 -5 78 -25z
m890 -70 c3 -22 1 -23 -82 -23 -77 0 -86 2 -86 18 0 30 10 33 90 30 69 -3 75
-5 78 -25z m1603 -124 c10 -13 19 -37 19 -52 0 -34 -3 -33 -125 23 -75 35
-121 72 -110 90 3 4 48 -3 102 -15 73 -17 101 -29 114 -46z"/>
<path d="M706 614 c-72 -23 -156 -110 -180 -188 -45 -142 18 -286 154 -357 64
-34 186 -34 250 0 61 32 107 76 138 136 22 42 27 63 27 130 0 67 -5 88 -27
131 -70 133 -216 192 -362 148z"/>
<path d="M3056 574 c-72 -23 -156 -110 -180 -188 -45 -142 18 -286 154 -357
64 -34 186 -34 250 0 61 32 107 76 138 136 22 42 27 63 27 130 0 67 -5 88 -27
131 -70 133 -216 192 -362 148z"/>
</g>
</svg>
