<svg width="28" height="96" viewBox="0 0 28 96" fill="none" xmlns="http://www.w3.org/2000/svg">
<path d="M1.58289 6.90636L1.09221 2.24511C1.40335 2.55722 1.76958 2.92936 2.16386 3.33936C3.3194 4.54098 4.70012 6.05159 5.64427 7.32541C7.55033 9.89702 8.39782 11.5872 9.78474 14.3531C9.86891 14.521 9.95507 14.6928 10.0436 14.869C11.4028 17.5755 12.0921 19.3769 13.0453 21.8681C13.2481 22.3982 13.4629 22.9595 13.6986 23.5674C17.436 33.2055 18.9986 38.8365 21.3072 48.9262C23.343 57.8236 24.0278 62.9155 25.1753 71.9907C25.7414 76.4674 26.2372 82.2297 26.5918 86.8784C26.769 89.2015 26.9108 91.2444 27.0082 92.7064C27.0366 93.1318 27.0612 93.508 27.0818 93.8276C26.6927 93.4713 26.2074 93.0197 25.6843 92.5161C24.4138 91.2925 22.9486 89.7883 22.0873 88.6014C20.3733 86.2398 19.5471 84.5013 18.8348 82.274C18.7582 82.0344 18.6361 81.391 18.4801 80.385C18.3269 79.3977 18.1469 78.1031 17.95 76.5957C17.5561 73.5815 17.0955 69.7267 16.6474 65.7994C15.7505 57.9396 14.9061 49.8106 14.7457 47.5525C14.4922 43.9829 13.5636 38.7844 12.8352 34.7066C12.6304 33.5597 12.4413 32.5015 12.2876 31.5931C11.5757 27.3858 10.1136 22.4227 8.64766 18.2325C7.91045 16.1253 6.98443 13.9222 6.10033 12.0986C5.65829 11.1868 5.22438 10.365 4.82743 9.69499C4.43604 9.03436 4.06279 8.49042 3.7388 8.15841C3.11829 7.52254 2.48561 7.19312 1.99743 7.02373C1.84263 6.97002 1.70279 6.93253 1.58289 6.90636Z" fill="black" stroke="black"/>
</svg>
