<svg width="66" height="105" viewBox="0 0 66 105" fill="none" xmlns="http://www.w3.org/2000/svg">
<path d="M2.73473 100.736L0.814794 7.87574L1.15424 7.79792L2.88746 7.40059L6.49637 6.57327C6.61196 6.54677 6.72533 6.52021 6.84012 6.49332C8.21121 6.17208 9.78681 5.80293 17.8176 4.91537C22.185 4.43267 26.9322 3.76835 30.5855 3.22508C32.4126 2.95338 33.967 2.71181 35.0648 2.53815C35.6137 2.45131 36.0485 2.38145 36.3462 2.33327C36.495 2.30919 36.6096 2.29052 36.687 2.27787L36.7749 2.26347L36.7972 2.2598L36.8018 2.25903L36.802 2.259L36.8028 2.25888L36.8029 2.25886L36.8044 2.25862L36.8047 2.25856L36.806 2.25837L36.8194 2.25627L36.8725 2.24798C36.9195 2.2407 36.9891 2.22998 37.0793 2.21635C37.2596 2.18909 37.5219 2.15017 37.8488 2.10366C38.5029 2.01063 39.4151 1.88738 40.4472 1.76651C42.5186 1.52393 45.0472 1.29417 46.9427 1.33139C47.4535 1.34141 48.3974 1.31871 49.5195 1.29172C50.4871 1.26845 51.5872 1.24199 52.6561 1.23059C53.8235 1.21814 54.9641 1.22316 55.8909 1.26753C56.3546 1.28973 56.7573 1.32145 57.0792 1.36433C57.4149 1.40904 57.6169 1.46049 57.7095 1.50231C58.3098 1.77368 59.1104 2.3266 59.7851 2.83569C60.1169 3.086 60.4087 3.31839 60.6176 3.48819C60.6794 3.53842 60.7338 3.5831 60.7798 3.62108L61.4473 26.8561L61.4473 26.8561L61.4476 26.8634L63.2701 68.8767L63.2701 68.8774L64.8176 103.397C64.6769 103.36 64.516 103.318 64.3373 103.272C63.6255 103.087 62.6298 102.834 61.4937 102.561C59.2259 102.016 56.3826 101.389 54.121 101.07C49.834 100.466 46.9699 100.454 43.2978 100.438C42.2995 100.434 41.2414 100.43 40.0788 100.413C35.4891 100.347 32.9103 100.397 28.3274 100.561C27.4373 100.593 26.7001 100.647 26.0049 100.698C25.825 100.711 25.648 100.724 25.4719 100.736C24.6141 100.796 23.7645 100.842 22.6741 100.828C21.0109 100.805 19.7255 100.595 18.409 100.377L18.3696 100.371C17.0642 100.154 15.7238 99.9325 13.9967 99.9009C11.711 99.859 10.3757 99.9649 8.20568 100.137C8.10314 100.145 7.99874 100.153 7.89228 100.162C6.76745 100.251 5.33744 100.413 4.19326 100.552C3.62018 100.622 3.11697 100.686 2.75697 100.733C2.74949 100.734 2.74208 100.735 2.73473 100.736Z" fill="black" stroke="black"/>
</svg>
