<svg width="45" height="46" viewBox="0 0 45 46" fill="none" xmlns="http://www.w3.org/2000/svg">
<path d="M41.4158 17.7588L41.4158 17.7588L41.416 17.7609L41.416 17.7609L41.4163 17.7636C41.6216 19.6506 41.6963 20.3371 41.3336 22.1426C41.2167 22.7243 41.2085 23.2408 41.2213 23.8285C41.2244 23.9699 41.2287 24.1153 41.2331 24.2674C41.2474 24.7511 41.2636 25.3031 41.2497 26.0116C41.2319 26.9154 41.3767 27.883 41.5261 28.8818C41.5415 28.9849 41.557 29.0884 41.5723 29.1922C41.7375 30.3087 41.8956 31.4962 41.8727 32.8007C41.8722 32.8026 41.8716 32.8047 41.8709 32.807C41.863 32.8347 41.8489 32.8771 41.8266 32.9364C41.7821 33.0544 41.7145 33.2152 41.6243 33.4164C41.4444 33.8174 41.186 34.3549 40.8732 34.985C40.2482 36.2439 39.415 37.8544 38.5806 39.4444C37.7466 41.0336 36.9129 42.5996 36.2876 43.7684C35.975 44.3528 35.7145 44.8378 35.5322 45.1767L35.514 45.2105C35.4112 45.1382 35.293 45.0555 35.1612 44.9638C34.6512 44.6092 33.9361 44.1199 33.1148 43.5809C31.4781 42.5067 29.3982 41.2206 27.6777 40.4151C24.2683 38.819 21.7671 37.9861 17.798 37.1613C14.0002 36.372 11.7645 36.0821 7.86696 36.202C6.34245 36.2489 4.42166 36.4994 2.89536 36.7349C2.12935 36.8531 1.45736 36.9684 0.976735 37.0541C0.933228 37.0619 0.891282 37.0694 0.850971 37.0767C0.855382 37.0238 0.860069 36.9679 0.865025 36.9091C0.909573 36.3798 0.976085 35.6105 1.06386 34.6509C1.23941 32.7317 1.49996 30.0517 1.83993 27.0095C2.52042 20.9202 3.51713 13.3979 4.78382 7.61893C4.91415 7.02434 5.04242 6.38289 5.16589 5.76549C5.25549 5.3174 5.34256 4.88199 5.42605 4.48636C5.52736 4.00622 5.62516 3.5751 5.72065 3.2207C5.8188 2.85645 5.90547 2.60873 5.97613 2.47408C6.16807 2.10836 6.32751 1.85232 6.5129 1.65964C6.67459 1.49159 6.86852 1.35926 7.15054 1.26087L8.07761 1.27907L8.02805 3.8034L8.01556 4.4397L8.63596 4.30141L8.63623 4.30135L8.63646 4.3013L8.63673 4.30124L8.63847 4.30087L8.65319 4.29784C8.66727 4.295 8.68983 4.2906 8.72055 4.28508C8.78198 4.27404 8.87599 4.25853 8.99993 4.24205C9.24786 4.20909 9.61519 4.1723 10.0809 4.15961C11.0126 4.13422 12.3356 4.20533 13.8837 4.59473C15.5309 5.00906 16.8525 5.08558 17.7712 5.0559C18.2303 5.04106 18.5884 4.99972 18.8357 4.96097C18.9594 4.94159 19.0554 4.92287 19.1225 4.90843C19.1561 4.90121 19.1825 4.89506 19.2014 4.89044L19.2244 4.88471L19.2283 4.8837L19.2285 4.88365L19.2404 4.88072L19.2878 4.86919C19.3296 4.85905 19.3912 4.84414 19.4705 4.82515C19.629 4.78717 19.8578 4.73288 20.1385 4.66781C20.6999 4.53764 21.4676 4.36458 22.2935 4.19279C23.9716 3.84373 25.8089 3.51802 26.6858 3.53523L36.5146 3.72818C37.685 3.75116 39.421 3.59161 40.9314 3.43285C41.3116 3.39289 41.6796 3.35272 42.0231 3.31515L42.0965 3.30712C42.4124 3.27255 42.7058 3.24045 42.9684 3.21284C43.3784 3.16975 43.6919 3.14019 43.8942 3.12744C43.938 3.25599 43.9826 3.45067 44.0232 3.71057C44.1131 4.28557 44.1674 5.06676 44.1987 5.86643C44.2298 6.66181 44.2376 7.45855 44.2376 8.0576C44.2376 8.17403 44.2373 8.28289 44.2368 8.3827C43.8848 8.32458 43.4032 8.3269 42.9528 8.60821C42.2123 9.07067 41.7218 9.44105 41.2436 10.2634C40.8061 11.0157 40.7468 11.7051 40.8105 12.3793C40.8395 12.6863 40.8948 12.9964 40.9483 13.2967C40.9515 13.3149 40.9548 13.3331 40.958 13.3512C41.0156 13.675 41.0713 13.9971 41.1038 14.342C41.1535 14.8678 41.1896 15.2998 41.2241 15.7133C41.2772 16.3481 41.3266 16.9392 41.4158 17.7588ZM41.8764 32.7859C41.8764 32.7859 41.8763 32.7866 41.876 32.788L41.8764 32.7859Z" fill="black" stroke="black"/>
</svg>
