<svg width="69" height="83" viewBox="0 0 69 83" fill="none" xmlns="http://www.w3.org/2000/svg">
<path d="M1.44789 71.587C1.66297 71.573 1.94414 71.5538 2.27927 71.5292C3.09433 71.4693 4.22942 71.3767 5.50999 71.2461C8.06318 70.9858 11.2238 70.5715 13.5769 69.9558C18.0813 68.7772 20.6957 67.95 24.7541 65.5829C29.4018 62.8721 31.9958 60.8855 35.2844 56.5822C38.6596 52.1655 40.115 49.0783 41.2984 43.6433C42.6322 37.5176 42.0239 32.1254 40.483 26.7437C39.6996 24.0078 37.747 20.5143 36.0194 17.7381C35.1508 16.3424 34.3305 15.1145 33.7274 14.2356C33.4257 13.796 33.1782 13.4433 33.0058 13.2003C32.9735 13.1548 32.9439 13.1131 32.917 13.0754L39.1176 1.25986C39.2792 1.4401 39.4764 1.66001 39.7017 1.91072C40.3497 2.63207 41.2293 3.6086 42.1554 4.62908C43.9989 6.66029 46.052 8.89366 46.8125 9.6112C48.1212 10.846 49.8944 12.3996 51.3362 13.6411C52.058 14.2626 52.6984 14.8072 53.1583 15.1965C53.3883 15.3912 53.5732 15.547 53.7007 15.6543L53.742 15.689L53.7575 15.8448L53.8589 16.8604C53.9466 17.7368 54.0727 18.9921 54.2262 20.5081C54.533 23.5399 54.9495 27.6141 55.3877 31.7835C55.826 35.9526 56.2861 40.2181 56.6803 43.6319C57.0723 47.0264 57.4037 49.6224 57.5857 50.4165C58.2953 53.512 59.0964 55.4498 60.9091 58.2069C61.86 59.6531 63.3776 61.2274 64.6354 62.4248C65.2682 63.0273 65.8429 63.5414 66.2595 63.905C66.4679 64.0869 66.6369 64.2313 66.7542 64.3306C66.7599 64.3354 66.7655 64.3401 66.7709 64.3447L67.8257 81.3851C67.7258 81.2879 67.6191 81.1844 67.5065 81.0753C66.7453 80.338 65.7104 79.3461 64.6161 78.3289C63.5226 77.3125 62.366 76.2671 61.3626 75.4243C60.8612 75.0031 60.3935 74.6287 59.9885 74.3326C59.5925 74.0432 59.226 73.8057 58.9344 73.6824C58.62 73.5494 58.0933 73.4656 57.4737 73.4053C56.8306 73.3426 56.0178 73.2999 55.0845 73.2756C53.2165 73.227 50.8415 73.2518 48.3272 73.3447C43.3091 73.53 37.6848 73.9885 34.4111 74.6912C31.2081 75.3788 25.7329 76.1193 20.5615 76.775C19.2774 76.9378 18.0115 77.0954 16.8048 77.2457C13.1726 77.698 10.0771 78.0835 8.64001 78.3417C6.72822 78.6851 4.81766 79.1232 3.38707 79.4748C2.67126 79.6507 2.07445 79.8052 1.65627 79.9159C1.64321 79.9194 1.63032 79.9228 1.61761 79.9261L1.44789 71.587Z" fill="black" stroke="black"/>
</svg>
