<svg width="72" height="93" viewBox="0 0 72 93" fill="none" xmlns="http://www.w3.org/2000/svg">
<path d="M26.885 70.4217L27.1892 70.0249L27.1774 70.0158L27.165 70.0074L0.889484 52.2421L1.50449 1.92038C1.63584 1.90847 1.79345 1.89436 1.97367 1.87854C2.54633 1.82825 3.34688 1.7607 4.25817 1.69165C6.08368 1.55333 8.34276 1.40986 10.1044 1.38598C10.4815 1.38087 10.8315 1.37475 11.1628 1.36896C12.918 1.33828 14.1486 1.31678 16.0986 1.50251C16.4957 1.54033 16.9009 1.58082 17.3115 1.62184C19.0332 1.79388 20.8496 1.97537 22.5553 2.00886C24.0356 2.03791 26.7251 1.97394 29.9288 1.89773C30.8459 1.87591 31.8053 1.85309 32.7905 1.83116C34.3104 1.79733 35.6959 1.75217 36.9997 1.70967C42.1779 1.54088 46.0696 1.41403 51.9927 2.20535C54.3519 2.52054 57.3469 3.14276 59.7617 3.68898C60.967 3.96163 62.024 4.21447 62.7795 4.39912C63.1416 4.48762 63.4344 4.56043 63.6409 4.61223L70.5298 92.3592C70.3431 92.3638 70.1124 92.3691 69.8474 92.3745C69.1104 92.3895 68.1087 92.4052 67.0488 92.4079C65.9882 92.4107 64.8733 92.4005 63.9086 92.364C62.9303 92.327 62.1471 92.264 61.7264 92.1712C59.8647 91.7607 57.7971 91.1915 55.4249 90.183C52.9026 89.1108 51.5794 88.2609 49.276 86.7816L49.1398 86.694C47.3508 85.5452 46.1867 84.6115 44.8536 83.5422C44.1444 82.9734 43.3873 82.3662 42.463 81.6679C39.4713 79.4078 35.6531 76.4971 32.5823 74.1512C31.0469 72.9783 29.6986 71.9467 28.7342 71.2083C28.2519 70.8391 27.8657 70.5432 27.6 70.3397L27.2949 70.1059L27.216 70.0454L27.1959 70.03L27.1909 70.0261L27.1896 70.0252L27.1893 70.0249C27.1892 70.0249 27.1892 70.0249 26.885 70.4217Z" fill="black" stroke="black"/>
</svg>
