<svg width="107" height="296" viewBox="0 0 107 296" fill="none" xmlns="http://www.w3.org/2000/svg">
<path d="M69.737 2.99896C69.8974 3.28561 70.0737 3.60084 70.2645 3.9422C71.2637 5.73046 72.6591 8.23549 74.2433 11.1025C77.4122 16.8373 81.335 24.017 84.3553 29.8048C90.6039 41.7787 96.1429 55.8739 99.2239 69.0103C101.873 80.304 103.605 102.568 104.333 114.923C105.313 131.538 104.986 141.488 104.476 157.032C104.429 158.445 104.381 159.905 104.333 161.419C104.148 167.17 103.626 174.524 103.15 180.446C102.912 183.406 102.685 186.006 102.518 187.866C102.435 188.795 102.366 189.54 102.318 190.053C102.294 190.309 102.276 190.507 102.263 190.641L102.249 190.793L102.245 190.831L102.244 190.841L102.244 190.843L102.244 190.844C102.244 190.844 102.244 190.844 102.741 190.892L102.244 190.844L102.231 190.982L102.29 191.107L105.498 197.852L105.139 201.34C105.038 201.268 104.929 201.193 104.814 201.118C104.222 200.729 103.378 200.269 102.578 200.222C102.429 200.213 102.277 200.189 102.101 200.161L102.068 200.156C101.889 200.128 101.677 200.096 101.469 200.094C101.257 200.092 101.014 200.121 100.779 200.241C100.537 200.365 100.347 200.564 100.208 200.829C100.131 200.976 100.049 201.233 99.9692 201.51C99.8836 201.806 99.7845 202.183 99.6781 202.609C99.4651 203.462 99.2187 204.525 98.9854 205.561C98.7519 206.599 98.5308 207.612 98.3681 208.366C98.2867 208.743 98.22 209.056 98.1735 209.274L98.1673 209.303L96.988 209.574C96.9659 209.577 96.9422 209.581 96.9172 209.587C96.8514 209.604 96.7784 209.631 96.7002 209.673C96.5441 209.759 96.3743 209.901 96.1966 210.129C95.8464 210.577 95.4317 211.399 95.0165 212.931C94.4 215.207 93.89 216.788 93.2514 218.769C93.0491 219.396 92.834 220.063 92.5985 220.805C89.8065 229.601 85.6277 240.471 82.1411 249.247C80.7716 252.694 79.5098 255.815 78.4816 258.358C78.2013 259.051 77.9385 259.702 77.6955 260.304C77.1285 261.709 76.6691 262.855 76.3507 263.674C76.1918 264.082 76.0664 264.414 75.9802 264.656C75.9372 264.777 75.9021 264.881 75.877 264.964C75.8712 264.983 75.8656 265.002 75.8604 265.021C75.8544 265.043 75.8488 265.064 75.844 265.085C75.8372 265.114 75.8236 265.175 75.8222 265.242C75.8135 265.685 75.911 266.209 75.9997 266.596C76.0453 266.795 76.0914 266.969 76.1261 267.094C76.1335 267.121 76.1405 267.145 76.1468 267.167L76.1238 267.269L75.9784 267.919C75.8529 268.481 75.6731 269.285 75.456 270.259C75.0218 272.207 74.4384 274.831 73.8415 277.538C72.6504 282.94 71.3984 288.703 71.1805 290.04C70.7705 292.557 69.6679 293.952 68.9628 294.63C68.7005 294.882 68.1782 295.043 67.6173 295.126C67.4437 295.151 67.279 295.167 67.1362 295.178L67.1215 294.558C67.1046 293.841 67.0804 292.816 67.0515 291.58C66.9936 289.109 66.9168 285.799 66.8409 282.441C66.6888 275.714 66.5413 268.828 66.5559 268.086C66.5739 267.17 66.1372 266.298 65.6107 265.55C65.0828 264.8 64.4125 264.102 63.8635 263.531L63.8518 263.519C63.6946 263.356 63.4815 263.298 63.2787 263.332C63.1104 263.361 62.9749 263.448 62.8826 263.52C62.6931 263.666 62.4998 263.897 62.3109 264.157C61.9235 264.69 61.4475 265.499 60.9212 266.476C59.8647 268.438 58.5653 271.155 57.3052 273.897C56.044 276.642 54.8181 279.422 53.9076 281.516C53.4524 282.562 53.0758 283.438 52.8131 284.052C52.7519 284.195 52.6968 284.324 52.6484 284.437C52.6442 284.447 52.64 284.457 52.6359 284.466C52.5446 284.406 52.4422 284.338 52.3299 284.264C51.8277 283.931 51.1274 283.463 50.3348 282.925C48.7475 281.847 46.7986 280.491 45.3308 279.368C44.6635 278.857 43.9739 278.412 43.3417 278.005C42.9826 277.773 42.6421 277.554 42.3348 277.341C41.4535 276.73 40.7438 276.115 40.2498 275.254C39.3355 273.66 38.5204 271.83 37.551 269.653C37.3742 269.256 37.1922 268.847 37.0036 268.427C35.4801 265.028 33.7767 260.565 32.4518 256.944C31.7899 255.135 31.2235 253.539 30.8226 252.395C30.6222 251.823 30.4632 251.365 30.3543 251.049C30.3316 250.983 30.3111 250.924 30.2928 250.871C30.3077 250.857 30.3231 250.843 30.3392 250.828C30.5247 250.656 30.7918 250.405 31.1195 250.089C31.7745 249.457 32.6727 248.563 33.646 247.513C35.5826 245.425 37.854 242.681 39.074 240.148C41.3365 235.449 41.8372 232.316 42.0217 227.148C42.2224 221.528 41.7167 218.134 39.6143 212.904C37.5729 207.826 35.7513 205.013 31.7791 201.232C28.2289 197.852 25.73 196.259 21.1558 194.493C18.1926 193.349 16.092 193.06 13.4203 192.692C12.7444 192.599 12.032 192.5 11.2598 192.382C9.19152 192.065 6.53336 191.823 4.40067 191.661C3.33254 191.579 2.39291 191.517 1.72022 191.476C1.49297 191.462 1.29614 191.45 1.13506 191.441L1.76466 176.954L27.1413 193.981L27.1424 193.981L27.1809 194.011L27.3313 194.125L27.9054 194.561C28.4018 194.938 29.115 195.479 29.9826 196.137C31.7177 197.454 34.0701 199.237 36.5391 201.106C41.4746 204.841 46.8826 208.922 48.7512 210.285C50.6165 211.646 51.6282 212.328 52.528 212.826C53.1909 213.193 53.7944 213.461 54.6177 213.826C54.9046 213.953 55.2182 214.092 55.5704 214.251C56.9244 214.863 58.44 215.465 59.7633 215.919C60.4248 216.145 61.0433 216.337 61.5727 216.473C62.0918 216.607 62.5594 216.698 62.9045 216.704L62.9112 216.704L62.9181 216.705L62.9251 216.705L62.9323 216.705L62.9397 216.705L62.9472 216.705L62.9548 216.705L62.9626 216.705L62.9705 216.706L62.9786 216.706L62.9869 216.706L62.9953 216.706L63.0038 216.706L63.0125 216.706L63.0213 216.707L63.0303 216.707L63.0394 216.707L63.0487 216.707L63.0581 216.707L63.0677 216.707L63.0774 216.708L63.0872 216.708L63.0972 216.708L63.1073 216.708L63.1176 216.708L63.128 216.709L63.1385 216.709L63.1492 216.709L63.16 216.709L63.171 216.71L63.1821 216.71L63.1933 216.71L63.2046 216.71L63.2161 216.71L63.2278 216.711L63.2395 216.711L63.2514 216.711L63.2634 216.711L63.2756 216.712L63.2879 216.712L63.3003 216.712L63.3128 216.712L63.3255 216.713L63.3383 216.713L63.3512 216.713L63.3643 216.713L63.3774 216.714L63.3907 216.714L63.4042 216.714L63.4177 216.714L63.4314 216.715L63.4452 216.715L63.4591 216.715L63.4731 216.715L63.4873 216.716L63.5015 216.716L63.5159 216.716L63.5304 216.717L63.5451 216.717L63.5598 216.717L63.5747 216.717L63.5897 216.718L63.6047 216.718L63.62 216.718L63.6353 216.719L63.6507 216.719L63.6662 216.719L63.6819 216.72L63.6977 216.72L63.7135 216.72L63.7295 216.72L63.7456 216.721L63.7618 216.721L63.7781 216.721L63.7946 216.722L63.8111 216.722L63.8277 216.722L63.8445 216.723L63.8613 216.723L63.8782 216.723L63.8953 216.724L63.9124 216.724L63.9297 216.724L63.947 216.725L63.9645 216.725L63.982 216.725L63.9997 216.726L64.0174 216.726L64.0353 216.726L64.0532 216.727L64.0713 216.727L64.0894 216.728L64.1076 216.728L64.126 216.728L64.1444 216.729L64.1629 216.729L64.1815 216.729L64.2002 216.73L64.219 216.73L64.2379 216.73L64.2568 216.731L64.2759 216.731L64.2951 216.732L64.3143 216.732L64.3336 216.732L64.353 216.733L64.3725 216.733L64.3921 216.733L64.4118 216.734L64.4315 216.734L64.4513 216.735L64.4712 216.735L64.4912 216.735L64.5113 216.736L64.5315 216.736L64.5517 216.737L64.572 216.737L64.5924 216.737L64.6129 216.738L64.6334 216.738L64.6541 216.739L64.6748 216.739L64.6956 216.739L64.7164 216.74L64.7373 216.74L64.7583 216.741L64.7794 216.741L64.8006 216.742L64.8218 216.742L64.8431 216.742L64.8644 216.743L64.8858 216.743L64.9073 216.744L64.9289 216.744L64.9505 216.744L64.9722 216.745L64.994 216.745L65.0158 216.746L65.0377 216.746L65.0597 216.747L65.0817 216.747L65.1038 216.747L65.1259 216.748L65.1481 216.748L65.1704 216.749L65.1927 216.749L65.2151 216.75L65.2376 216.75L65.2601 216.751L65.2826 216.751L65.3053 216.751L65.3279 216.752L65.3507 216.752L65.3735 216.753L65.3963 216.753L65.4192 216.754L65.4421 216.754L65.4651 216.755L65.4882 216.755L65.5113 216.755L65.5345 216.756L65.5577 216.756L65.5809 216.757L65.6042 216.757L65.6276 216.758L65.6509 216.758L65.6744 216.759L65.6979 216.759L65.7214 216.76L65.745 216.76L65.7686 216.761L65.7923 216.761L65.816 216.761L65.8397 216.762L65.8635 216.762L65.8873 216.763L65.9112 216.763L65.9351 216.764L65.9591 216.764L65.983 216.765L66.0071 216.765L66.0311 216.766L66.0552 216.766L66.0793 216.767L66.1035 216.767L66.1277 216.768L66.1519 216.768L66.1762 216.769L66.2005 216.769L66.2248 216.769L66.2492 216.77L66.2735 216.77L66.298 216.771L66.3224 216.771L66.3469 216.772L66.3714 216.772L66.3959 216.773L66.4204 216.773L66.445 216.774L66.4696 216.774L66.4942 216.775L66.5189 216.775L66.5436 216.776L66.5683 216.776L66.593 216.777L66.6177 216.777L66.6425 216.778L66.6672 216.778L66.692 216.779L66.7168 216.779L66.7417 216.78L66.7665 216.78L66.7914 216.781L66.8162 216.781L66.8411 216.782L66.866 216.782L66.8909 216.783L66.9159 216.783L66.9408 216.784L66.9658 216.784L66.9907 216.785L67.0157 216.785L67.0407 216.785L67.0657 216.786L67.0907 216.786L67.1157 216.787L67.1407 216.787L67.1657 216.788L67.1908 216.788L67.2158 216.789L67.2408 216.789L67.2659 216.79L67.2909 216.79L67.316 216.791L67.341 216.791L67.366 216.792L67.3911 216.792L67.4161 216.793L67.4412 216.793L67.4662 216.794L67.4913 216.794L67.5163 216.795L67.5413 216.795L67.5664 216.796L67.5914 216.796L67.6164 216.797L67.6414 216.797L67.6664 216.798L67.6914 216.798L67.7164 216.799L67.7414 216.799L67.7664 216.8L67.7913 216.8L67.8163 216.801L67.8412 216.801L67.8661 216.802L67.8911 216.802L67.916 216.803L67.9408 216.803L67.9657 216.804L67.9906 216.804L68.0154 216.805L68.0402 216.805L68.065 216.806L68.0898 216.806L68.1146 216.807L68.1393 216.807L68.164 216.808L68.1887 216.808L68.2134 216.809L68.2381 216.809L68.2627 216.809L68.2873 216.81L68.3119 216.81L68.3365 216.811L68.361 216.811L68.3856 216.812L68.41 216.812L68.4345 216.813L68.4589 216.813L68.4833 216.814L68.5077 216.814L68.5321 216.815L68.5564 216.815L68.5807 216.816L68.6049 216.816L68.6291 216.817L68.6533 216.817L68.6775 216.818L68.7016 216.818L68.7256 216.819L68.7497 216.819L68.7737 216.82L68.7977 216.82L68.8216 216.82L68.8455 216.821L68.8693 216.821L68.8931 216.822L68.9169 216.822L68.9407 216.823L68.9643 216.823L68.988 216.824L69.0116 216.824L69.0352 216.825L69.0587 216.825L69.0821 216.826L69.1056 216.826L69.1289 216.826L69.1523 216.827L69.1755 216.827L69.1988 216.828L69.222 216.828L69.2451 216.829L69.2682 216.829L69.2912 216.83L69.3142 216.83L69.3371 216.831L69.36 216.831L69.3828 216.831L69.4056 216.832L69.4283 216.832L69.4509 216.833L69.4735 216.833L69.4961 216.834L69.5186 216.834L69.541 216.835L69.5634 216.835L69.5857 216.835L69.6079 216.836L69.6301 216.836L69.6522 216.837L69.6743 216.837L69.6963 216.838L69.7182 216.838L69.7401 216.838L69.7619 216.839L69.7836 216.839L69.8053 216.84L69.8269 216.84L69.8484 216.841L69.8699 216.841L69.8913 216.841L69.9126 216.842L69.9339 216.842L69.9551 216.843L69.9762 216.843L69.9972 216.844L70.0182 216.844L70.0391 216.844L70.0599 216.845L70.0807 216.845L70.1014 216.846L70.122 216.846L70.1425 216.846L70.1629 216.847L70.1833 216.847L70.2036 216.848L70.2238 216.848L70.2439 216.848L70.264 216.849L70.2839 216.849L70.3038 216.85L70.3236 216.85L70.3433 216.85L70.363 216.851L70.3825 216.851L70.402 216.851L70.4213 216.852L70.4406 216.852L70.4598 216.853L70.4789 216.853L70.498 216.853L70.5169 216.854L70.5357 216.854L70.5545 216.854L70.5732 216.855L70.5917 216.855L70.6102 216.856L70.6286 216.856L70.6469 216.856L70.6651 216.857L70.6832 216.857L70.7012 216.857L70.7191 216.858L70.7369 216.858L70.7546 216.858L70.7722 216.859L70.7897 216.859L70.8071 216.859L70.8245 216.86L70.8417 216.86L70.8588 216.86L70.8758 216.861L70.8927 216.861L70.9095 216.861L70.9262 216.862L70.9428 216.862L70.9593 216.862L70.9756 216.863L70.9919 216.863L71.0081 216.863L71.0241 216.864L71.0401 216.864L71.0559 216.864L71.0716 216.865L71.0872 216.865L71.1027 216.865L71.1181 216.866L71.1334 216.866L71.1486 216.866L71.1636 216.866L71.1786 216.867L71.1934 216.867L71.2081 216.867L71.2227 216.868L71.2371 216.868L71.2515 216.868L71.2657 216.868L71.2798 216.869L71.2938 216.869L71.3077 216.869L71.3214 216.87L71.335 216.87L71.3485 216.87L71.3619 216.87L71.3752 216.871L71.3883 216.871L71.4013 216.871L71.4142 216.871L71.4269 216.872L71.4395 216.872L71.452 216.872L71.4644 216.872L71.4766 216.873L71.4887 216.873L71.5007 216.873L71.5125 216.873L71.5242 216.873L71.5358 216.874L71.5472 216.874L71.5585 216.874L71.5697 216.874L71.5808 216.875L71.5917 216.875L71.6024 216.875L71.613 216.875L71.6235 216.875L71.6339 216.876L71.6441 216.876L71.6542 216.876L71.6641 216.876L71.6739 216.876L71.6835 216.877L71.693 216.877L71.7024 216.877L71.7116 216.877L71.7207 216.877L71.7296 216.878L71.7384 216.878L71.747 216.878L71.7555 216.878L71.7638 216.878L71.772 216.878L71.78 216.879L71.7879 216.879L71.7957 216.879L71.8032 216.879L71.8086 216.879L72.0142 217.042C72.2296 217.212 72.5382 217.456 72.9108 217.751C73.656 218.339 74.6576 219.127 75.6828 219.928C76.7076 220.728 77.7573 221.542 78.5984 222.181C79.0187 222.501 79.3889 222.778 79.6787 222.988C79.9541 223.188 80.1905 223.353 80.3232 223.422L80.4045 223.465C81.1259 223.845 82.0211 224.316 83.1988 224.288C83.9847 224.269 84.6422 224.183 85.2657 223.867C85.8859 223.554 86.42 223.041 87.0203 222.272C87.6508 221.465 88.3994 219.882 89.1573 218.053C89.9241 216.203 90.7261 214.035 91.4554 212.008C93.8467 205.364 94.5967 200.705 95.5468 194.804C95.8198 193.109 96.1093 191.311 96.459 189.333C98.5043 177.768 99.2371 171.186 100.076 159.477C100.271 156.749 100.473 154.28 100.663 151.955C101.333 143.758 101.856 137.348 101.443 127.665C101.081 119.204 100.771 114.507 100.21 106.061C99.5956 96.8262 97.1947 77.8936 95.2901 69.4605C93.1885 60.1549 91.5248 54.2129 87.318 45.6122C84.6438 40.145 82.5678 36.6453 79.783 31.951C79.2885 31.1174 78.7716 30.2461 78.2251 29.3195C76.6431 26.6372 74.7425 23.8818 73.2407 21.8009C72.4891 20.7595 71.8361 19.8851 71.3707 19.2708C71.1379 18.9636 70.9521 18.7214 70.8242 18.5557C70.7842 18.5038 70.7498 18.4594 70.7215 18.4229L69.737 2.99896Z" fill="black" stroke="black"/>
</svg>
