<svg width="59" height="58" viewBox="0 0 59 58" fill="none" xmlns="http://www.w3.org/2000/svg">
<path d="M25.1896 56.561C25.0561 56.6136 24.9452 56.6585 24.8617 56.6928C24.7547 56.6574 24.6015 56.6064 24.408 56.5417C24.0052 56.407 23.4279 56.2128 22.7305 55.9749C21.3354 55.499 19.4607 54.8488 17.5404 54.1507C15.6189 53.4522 13.6575 52.7078 12.0869 52.0435C11.3011 51.7112 10.62 51.4017 10.0934 51.1304C9.54547 50.8482 9.22613 50.6372 9.10585 50.5121C8.9952 50.397 8.83091 50.1105 8.63472 49.6123C8.44663 49.1347 8.25157 48.5228 8.05506 47.8178C7.66242 46.4091 7.27425 44.6661 6.9305 42.962C6.58712 41.2596 6.28969 39.6042 6.07803 38.3739C5.97224 37.7589 5.88794 37.2505 5.83013 36.896C5.80122 36.7188 5.77893 36.5801 5.76389 36.4858L5.74684 36.3784L5.74254 36.3511L5.74153 36.3447L5.74147 36.3443L5.74121 36.3426L5.74115 36.3422L1.48883 8.16532C1.8693 8.20832 2.39028 8.2649 2.98101 8.32274C4.19787 8.44189 5.72456 8.56776 6.92886 8.58929C10.9729 8.66155 13.3038 8.47942 17.2698 7.64493C20.4827 6.9689 22.3519 6.51684 25.3677 5.11891C26.7676 4.46999 28.3309 3.43785 29.5304 2.58078C30.1333 2.14999 30.6504 1.75904 31.017 1.47561C31.0312 1.46465 31.0451 1.45384 31.0589 1.4432C31.1225 1.61333 31.1975 1.81391 31.2826 2.04092C31.5726 2.81482 31.9791 3.89598 32.4451 5.12513C33.3767 7.58256 34.5474 10.6348 35.5005 13.0056C35.9505 14.1249 36.321 15.1145 36.6713 16.0503C37.4778 18.2045 38.1777 20.0738 39.4945 22.5838C39.6856 22.9481 39.8685 23.3133 40.0486 23.6727L40.0663 23.708C40.2511 24.0769 40.4336 24.4405 40.6148 24.7814C40.972 25.4532 41.3478 26.083 41.7708 26.5228C41.8993 26.6565 42.2016 26.8905 42.5755 27.1673C42.9674 27.4575 43.4837 27.8276 44.0794 28.2478C45.2712 29.0886 46.7893 30.1363 48.2825 31.1587C49.7761 32.1814 51.2464 33.1798 52.3431 33.9225C52.8915 34.2939 53.3466 34.6014 53.6646 34.816L53.8535 34.9435C53.8229 35.0494 53.7888 35.1747 53.7545 35.3151C53.6468 35.7555 53.5328 36.3597 53.5205 36.9888L53.5203 36.9956L53.5202 37.0026L53.5201 37.0096L53.5199 37.0167L53.5198 37.024L53.5196 37.0313L53.5195 37.0388L53.5193 37.0463L53.5192 37.054L53.519 37.0617L53.5189 37.0696L53.5187 37.0775L53.5186 37.0855L53.5184 37.0937L53.5182 37.1019L53.5181 37.1102L53.5179 37.1186L53.5178 37.1272L53.5176 37.1358L53.5174 37.1445L53.5172 37.1533L53.5171 37.1622L53.5169 37.1711L53.5167 37.1802L53.5165 37.1894L53.5163 37.1986L53.5162 37.208L53.516 37.2174L53.5158 37.227L53.5156 37.2366L53.5154 37.2463L53.5152 37.2561L53.515 37.266L53.5148 37.2759L53.5146 37.286L53.5144 37.2962L53.5142 37.3064L53.514 37.3167L53.5138 37.3271L53.5136 37.3376L53.5134 37.3482L53.5132 37.3588L53.513 37.3696L53.5128 37.3804L53.5126 37.3913L53.5124 37.4023L53.5121 37.4134L53.5119 37.4245L53.5117 37.4358L53.5115 37.4471L53.5112 37.4585L53.511 37.47L53.5108 37.4815L53.5106 37.4932L53.5103 37.5049L53.5101 37.5167L53.5099 37.5285L53.5096 37.5405L53.5094 37.5525L53.5092 37.5646L53.5089 37.5768L53.5087 37.589L53.5084 37.6013L53.5082 37.6137L53.508 37.6262L53.5077 37.6387L53.5075 37.6514L53.5072 37.664L53.507 37.6768L53.5067 37.6896L53.5065 37.7025L53.5062 37.7155L53.5059 37.7286L53.5057 37.7417L53.5054 37.7549L53.5052 37.7681L53.5049 37.7814L53.5046 37.7948L53.5044 37.8083L53.5041 37.8218L53.5038 37.8354L53.5036 37.849L53.5033 37.8627L53.503 37.8765L53.5028 37.8904L53.5025 37.9043L53.5022 37.9183L53.5019 37.9323L53.5017 37.9464L53.5014 37.9606L53.5011 37.9748L53.5008 37.9891L53.5005 38.0034L53.5003 38.0179L53.5 38.0323L53.4997 38.0469L53.4994 38.0615L53.4991 38.0761L53.4988 38.0908L53.4985 38.1056L53.4983 38.1204L53.498 38.1353L53.4977 38.1502L53.4974 38.1652L53.4971 38.1802L53.4968 38.1954L53.4965 38.2105L53.4962 38.2257L53.4959 38.241L53.4956 38.2563L53.4953 38.2717L53.495 38.2871L53.4947 38.3026L53.4944 38.3181L53.4941 38.3337L53.4938 38.3493L53.4935 38.365L53.4931 38.3807L53.4928 38.3965L53.4925 38.4123L53.4922 38.4282L53.4919 38.4441L53.4916 38.4601L53.4913 38.4761L53.491 38.4922L53.4906 38.5083L53.4903 38.5244L53.49 38.5406L53.4897 38.5569L53.4894 38.5732L53.489 38.5895L53.4887 38.6059L53.4884 38.6223L53.4881 38.6388L53.4878 38.6553L53.4874 38.6718L53.4871 38.6884L53.4868 38.705L53.4864 38.7217L53.4861 38.7384L53.4858 38.7552L53.4855 38.772L53.4851 38.7888L53.4848 38.8056L53.4845 38.8226L53.4841 38.8395L53.4838 38.8565L53.4835 38.8735L53.4831 38.8905L53.4828 38.9076L53.4825 38.9247L53.4821 38.9419L53.4818 38.959L53.4815 38.9763L53.4811 38.9935L53.4808 39.0108L53.4804 39.0281L53.4801 39.0455L53.4798 39.0628L53.4794 39.0802L53.4791 39.0977L53.4787 39.1151L53.4784 39.1326L53.478 39.1502L53.4777 39.1677L53.4773 39.1853L53.477 39.2029L53.4767 39.2206L53.4763 39.2382L53.476 39.2559L53.4756 39.2736L53.4753 39.2914L53.4749 39.3091L53.4746 39.3269L53.4742 39.3447L53.4739 39.3626L53.4735 39.3804L53.4732 39.3983L53.4728 39.4162L53.4725 39.4342L53.4721 39.4521L53.4718 39.4701L53.4714 39.4881L53.4711 39.5061L53.4707 39.5241L53.4703 39.5421L53.47 39.5602L53.4696 39.5783L53.4693 39.5964L53.4689 39.6145L53.4686 39.6326L53.4682 39.6508L53.4679 39.669L53.4675 39.6871L53.4671 39.7053L53.4668 39.7236L53.4664 39.7418L53.4661 39.76L53.4657 39.7783L53.4654 39.7965L53.465 39.8148L53.4646 39.8331L53.4643 39.8514L53.4639 39.8697L53.4636 39.888L53.4632 39.9064L53.4628 39.9247L53.4625 39.943L53.4621 39.9614L53.4618 39.9798L53.4614 39.9981L53.461 40.0165L53.4607 40.0349L53.4603 40.0533L53.4599 40.0717L53.4596 40.0901L53.4592 40.1085L53.4589 40.1269L53.4585 40.1453L53.4581 40.1638L53.4578 40.1822L53.4574 40.2006L53.4571 40.219L53.4567 40.2375L53.4563 40.2559L53.456 40.2743L53.4556 40.2928L53.4552 40.3112L53.4549 40.3296L53.4545 40.3481L53.4542 40.3665L53.4538 40.3849L53.4534 40.4033L53.4531 40.4218L53.4527 40.4402L53.4524 40.4586L53.452 40.477L53.4516 40.4954L53.4513 40.5138L53.4509 40.5322L53.4505 40.5506L53.4502 40.569L53.4498 40.5874L53.4495 40.6057L53.4491 40.6241L53.4487 40.6424L53.4484 40.6608L53.448 40.6791L53.4477 40.6974L53.4473 40.7158L53.4469 40.7341L53.4466 40.7524L53.4462 40.7706L53.4459 40.7889L53.4455 40.8072L53.4452 40.8254L53.4448 40.8436L53.4444 40.8619L53.4441 40.8801L53.4437 40.8983L53.4434 40.9164L53.443 40.9346L53.4427 40.9527L53.4423 40.9709L53.4419 40.989L53.4416 41.0071L53.4412 41.0251L53.4409 41.0432L53.4405 41.0612L53.4402 41.0792L53.4398 41.0972L53.4395 41.1152L53.4391 41.1332L53.4388 41.1511L53.4384 41.169L53.4381 41.1869L53.4377 41.2048L53.4374 41.2226L53.437 41.2405L53.4367 41.2583L53.4363 41.2761L53.436 41.2938L53.4356 41.3115L53.4353 41.3292L53.4349 41.3469L53.4346 41.3646L53.4342 41.3822L53.4339 41.3998L53.4335 41.4173L53.4332 41.4349L53.4328 41.4524L53.4325 41.4699L53.4322 41.4873L53.4318 41.5048L53.4315 41.5222L53.4311 41.5395L53.4308 41.5568L53.4305 41.5741L53.4301 41.5914L53.4298 41.6086L53.4294 41.6258L53.4291 41.643L53.4288 41.6601L53.4284 41.6772L53.4281 41.6943L53.4278 41.7113L53.4274 41.7283L53.4271 41.7453L53.4268 41.7622L53.4264 41.7791L53.4261 41.7959L53.4258 41.8127L53.4254 41.8295L53.4251 41.8462L53.4248 41.8629L53.4245 41.8796L53.4241 41.8962L53.4238 41.9127L53.4235 41.9292L53.4232 41.9457L53.4228 41.9622L53.4225 41.9786L53.4222 41.9949L53.4219 42.0112L53.4216 42.0275L53.4212 42.0437L53.4209 42.0599L53.4206 42.076L53.4203 42.0921L53.42 42.1082L53.4197 42.1242L53.4193 42.1401L53.419 42.156L53.4187 42.1719L53.4184 42.1877L53.4181 42.2034L53.4178 42.2191L53.4175 42.2348L53.4172 42.2504L53.4169 42.2659L53.4166 42.2814L53.4163 42.2969L53.416 42.3123L53.4157 42.3276L53.4154 42.3429L53.4151 42.3581L53.4148 42.3733L53.4145 42.3885L53.4142 42.4035L53.4139 42.4185L53.4136 42.4335L53.4133 42.4484L53.413 42.4633L53.4127 42.4781L53.4124 42.4928L53.4121 42.5075L53.4118 42.5221L53.4116 42.5367L53.4113 42.5512L53.411 42.5656L53.4107 42.58L53.4104 42.5943L53.4101 42.6085L53.4099 42.6227L53.4096 42.6369L53.4093 42.6509L53.409 42.665L53.4088 42.6789L53.4085 42.6928L53.4082 42.7066L53.408 42.7203L53.4077 42.734L53.4074 42.7477L53.4072 42.7612L53.4069 42.7747L53.4066 42.7881L53.4064 42.8015L53.4061 42.8147L53.4058 42.828L53.4056 42.8411L53.4053 42.8542L53.4051 42.8672L53.4048 42.8801L53.4046 42.893L53.4043 42.9058L53.4041 42.9185L53.4038 42.9312L53.4036 42.9437L53.4033 42.9562L53.4031 42.9687L53.4028 42.981L53.4026 42.9933L53.4024 43.0055L53.4021 43.0177L53.4019 43.0297L53.4016 43.0417L53.4014 43.0536L53.4012 43.0654L53.4009 43.0772L53.4007 43.0889L53.4005 43.1005L53.4003 43.112L53.4 43.1234L53.3998 43.1348L53.3996 43.146L53.3994 43.1572L53.3992 43.1683L53.3989 43.1794L53.3987 43.1903L53.3985 43.2012L53.3983 43.212L53.3981 43.2227L53.3979 43.2333L53.3977 43.2438L53.3975 43.2543L53.3973 43.2646L53.3971 43.2749L53.3969 43.2851L53.3967 43.2952L53.3965 43.3052L53.3963 43.3151L53.3961 43.325L53.3959 43.3347L53.3957 43.3444L53.3955 43.354L53.3953 43.3634L53.3951 43.3728L53.395 43.3821L53.3948 43.3914L53.3946 43.4005L53.3944 43.4095L53.3943 43.4184L53.3941 43.4273L53.3939 43.436L53.3937 43.4447L53.3936 43.4532L53.3934 43.4617L53.3932 43.4701L53.3931 43.4784L53.3929 43.4865L53.3928 43.4946L53.3926 43.5026L53.3924 43.5105L53.3923 43.5183L53.3921 43.526L53.392 43.5336L53.3918 43.5411L53.3917 43.5484L53.3916 43.5557L53.3914 43.5629L53.3913 43.57L53.3911 43.577L53.391 43.5839L53.3909 43.5907L53.3907 43.5974L53.3906 43.6039L53.3905 43.6104L53.3904 43.6168L53.3902 43.6231L53.3901 43.6292L53.39 43.6353L53.3899 43.6412L53.3898 43.6471L53.3896 43.6528L53.3895 43.6584L53.3894 43.6639L53.3893 43.6694L53.3892 43.6747L53.3891 43.6798L53.389 43.6849L53.3889 43.6899L53.3888 43.6948L53.3887 43.6995L53.3886 43.7042L53.3886 43.7087L53.3885 43.7131L53.3884 43.7174L53.3883 43.7216L53.3882 43.7257L53.3881 43.7296L53.3881 43.7335L53.388 43.7372L53.3879 43.7408L53.3879 43.7443L53.3878 43.7477L53.3877 43.751L53.3877 43.7541L53.3876 43.7571L53.3875 43.7601L53.3875 43.7628L53.3874 43.7655L53.3874 43.7681L53.3873 43.7705L53.3873 43.7728L53.3873 43.775L53.3872 43.7771L53.3872 43.779L53.3871 43.7809L53.3871 43.7826L53.3871 43.7841L53.387 43.7856L53.387 43.7869L53.387 43.7881L53.387 43.7892L53.387 43.7902L53.3869 43.791L53.3869 43.7917L53.3869 43.7923L53.3869 43.7927L53.3869 43.7931L53.3869 43.7933L53.8868 43.8031L53.3869 43.7933L53.3869 43.7934L53.3869 43.7935L53.3869 43.7936L53.3869 43.7937L53.3869 43.7939L53.3869 43.7942L53.3869 43.7944L53.3869 43.7947L53.3869 43.795L53.3869 43.7954L53.3868 43.7958L53.3868 43.7962L53.3868 43.7967L53.3868 43.7972L53.3868 43.7977L53.3868 43.7982L53.3868 43.7988L53.3868 43.7995L53.3868 43.8001L53.3867 43.8008L53.3867 43.8015L53.3867 43.8023L53.3867 43.8031L53.3867 43.8039L53.3867 43.8047L53.3866 43.8056L53.3866 43.8065L53.3866 43.8075L53.3866 43.8084L53.3866 43.8094L53.3866 43.8105L53.3865 43.8116L53.3865 43.8127L53.3865 43.8138L53.3865 43.815L53.3864 43.8162L53.3864 43.8174L53.3864 43.8186L53.3864 43.8199L53.3863 43.8212L53.3863 43.8226L53.3863 43.824L53.3863 43.8254L53.3862 43.8268L53.3862 43.8283L53.3862 43.8298L53.3861 43.8313L53.3861 43.8329L53.3861 43.8345L53.3861 43.8361L53.386 43.8377L53.386 43.8394L53.386 43.8411L53.3859 43.8429L53.3859 43.8446L53.3858 43.8464L53.3858 43.8482L53.3858 43.8501L53.3857 43.852L53.3857 43.8539L53.3857 43.8558L53.3856 43.8578L53.3856 43.8598L53.3855 43.8618L53.3855 43.8638L53.3855 43.8659L53.3854 43.868L53.3854 43.8702L53.3853 43.8723L53.3853 43.8745L53.3853 43.8767L53.3852 43.879L53.3852 43.8812L53.3851 43.8835L53.3851 43.8859L53.385 43.8882L53.385 43.8906L53.3849 43.893L53.3849 43.8954L53.3848 43.8979L53.3848 43.9004L53.3847 43.9029L53.3847 43.9054L53.3846 43.908L53.3846 43.9106L53.3845 43.9132L53.3845 43.9158L53.3844 43.9185L53.3844 43.9212L53.3843 43.9239L53.3843 43.9266L53.3842 43.9294L53.3842 43.9322L53.3841 43.935L53.3841 43.9378L53.384 43.9407L53.3839 43.9436L53.3839 43.9465L53.3838 43.9495L53.3838 43.9524L53.3837 43.9554L53.3836 43.9584L53.3836 43.9615L53.3835 43.9645L53.3835 43.9676L53.3834 43.9707L53.3833 43.9739L53.3833 43.977L53.3832 43.9802L53.3832 43.9834L53.3831 43.9866L53.383 43.9899L53.383 43.9932L53.3829 43.9965L53.3828 43.9998L53.3828 44.0031L53.3827 44.0065L53.3826 44.0099L53.3826 44.0133L53.3825 44.0167L53.3824 44.0202L53.3824 44.0237L53.3823 44.0272L53.3822 44.0307L53.3822 44.0342L53.3821 44.0378L53.382 44.0414L53.382 44.045L53.3819 44.0486L53.3818 44.0523L53.3817 44.056L53.3817 44.0597L53.3816 44.0634L53.3815 44.0671L53.3814 44.0709L53.3814 44.0747L53.3813 44.0785L53.3812 44.0823L53.3811 44.0861L53.3811 44.09L53.381 44.0939L53.3809 44.0978L53.3808 44.1017L53.3808 44.1056L53.3807 44.1096L53.3806 44.1136L53.3805 44.1176L53.3804 44.1216L53.3804 44.1256L53.3803 44.1297L53.3802 44.1338L53.3801 44.1379L53.38 44.142L53.38 44.1461L53.3799 44.1503L53.3798 44.1545L53.3797 44.1587L53.3796 44.1629L53.3796 44.1671L53.3795 44.1714L53.3794 44.1756L53.3793 44.1799L53.3792 44.1842L53.3791 44.1885L53.379 44.1929L53.379 44.1972L53.3789 44.2016L53.3788 44.206L53.3787 44.2104L53.3786 44.2148L53.3785 44.2193L53.3784 44.2237L53.3784 44.2282L53.3783 44.2327L53.3782 44.2372L53.3781 44.2418L53.378 44.2463L53.3779 44.2509L53.3778 44.2554L53.3777 44.26L53.3776 44.2646L53.3775 44.2693L53.3775 44.2739L53.3774 44.2786L53.3773 44.2833L53.3772 44.2879L53.3771 44.2927L53.377 44.2974L53.3769 44.3021L53.3768 44.3069L53.3767 44.3116L53.3766 44.3164L53.3765 44.3212L53.3764 44.326L53.3763 44.3309L53.3762 44.3357L53.3761 44.3406L53.3761 44.3454L53.376 44.3503L53.3759 44.3552L53.3758 44.3601L53.3757 44.3651L53.3756 44.37L53.3755 44.375L53.3754 44.3799L53.3753 44.3849L53.3752 44.3899L53.3751 44.3949L53.375 44.4L53.3749 44.405L53.3748 44.4101L53.3747 44.4151L53.3746 44.4202L53.3745 44.4253L53.3744 44.4304L53.3743 44.4355L53.3742 44.4406L53.3741 44.4458L53.374 44.4509L53.3739 44.4561L53.3738 44.4613L53.3737 44.4665L53.3736 44.4717L53.3735 44.4769L53.3734 44.4821L53.3733 44.4873L53.3732 44.4926L53.3731 44.4979L53.373 44.5031L53.3729 44.5084L53.3727 44.5137L53.3726 44.519L53.3725 44.5243L53.3724 44.5297L53.3723 44.535L53.3722 44.5404L53.3721 44.5457L53.372 44.5511L53.3719 44.5565L53.3718 44.5619L53.3717 44.5673L53.3716 44.5727L53.3715 44.5781L53.3714 44.5835L53.3713 44.589L53.3712 44.5944L53.3711 44.5999L53.371 44.6053L53.3708 44.6108L53.3707 44.6163L53.3706 44.6218L53.3705 44.6273L53.3704 44.6328L53.3703 44.6384L53.3702 44.6439L53.3701 44.6494L53.37 44.655L53.3699 44.6605L53.3698 44.6661L53.3696 44.6717L53.3695 44.6773L53.3694 44.6829L53.3693 44.6885L53.3692 44.6941L53.3691 44.6997L53.369 44.7053L53.3689 44.7109L53.3688 44.7166L53.3687 44.7222L53.3685 44.7279L53.3684 44.7335L53.3683 44.7392L53.3682 44.7449L53.3681 44.7505L53.368 44.7562L53.3679 44.7619L53.3678 44.7676L53.3677 44.7733L53.3675 44.779L53.3674 44.7848L53.3673 44.7905L53.3672 44.7962L53.3671 44.802L53.367 44.8077L53.3669 44.8134L53.3668 44.8192L53.3666 44.825L53.3665 44.8307L53.3664 44.8365L53.3663 44.8423L53.3662 44.8481L53.3661 44.8538L53.366 44.8596L53.3658 44.8654L53.3657 44.8712L53.3656 44.877L53.3655 44.8828L53.3654 44.8887L53.3653 44.8945L53.3652 44.9003L53.365 44.9061L53.3649 44.912L53.3648 44.9178L53.3647 44.9236L53.3646 44.9295L53.3645 44.9353L53.3644 44.9412L53.3642 44.947L53.3641 44.9529L53.364 44.9587L53.3639 44.9646L53.3638 44.9705L53.3637 44.9763L53.3636 44.9822L53.3634 44.9881L53.3633 44.9939L53.3632 44.9998L53.3631 45.0057L53.363 45.0116L53.3629 45.0175L53.3627 45.0234L53.3626 45.0292L53.3625 45.0351L53.3624 45.041L53.3623 45.0469L53.3622 45.0528L53.3621 45.0587L53.3619 45.0646L53.3618 45.0705L53.3617 45.0764L53.3616 45.0823L53.3615 45.0882L53.3614 45.0941L53.3612 45.1L53.3611 45.1059L53.361 45.1118L53.3609 45.1177L53.3608 45.1236L53.3607 45.1296L53.3605 45.1355L53.3604 45.1414L53.3603 45.1473L53.3602 45.1532L53.3601 45.1591L53.36 45.165L53.3598 45.1709L53.3597 45.1768L53.3596 45.1827L53.3595 45.1886L53.3594 45.1945L53.3593 45.2004L53.3592 45.2063L53.359 45.2122L53.3589 45.2181L53.3588 45.224L53.3587 45.2299L53.3586 45.2358L53.3585 45.2417L53.3583 45.2476L53.3582 45.2535L53.3581 45.2593L53.358 45.2652L53.3579 45.2711L53.3578 45.277L53.3577 45.2829L53.3575 45.2887L53.3574 45.2946L53.3573 45.3005L53.3572 45.3064L53.3571 45.3122L53.357 45.3181L53.3568 45.3239L53.3567 45.3298L53.3566 45.3356L53.3565 45.3415L53.3564 45.3473L53.3563 45.3532L53.3562 45.359L53.356 45.3648L53.3559 45.3707L53.3558 45.3765L53.3557 45.3823L53.3556 45.3881L53.3555 45.3939L53.3554 45.3998L53.3552 45.4056L53.3551 45.4114L53.355 45.4171L53.3549 45.4229L53.3548 45.4287L53.3547 45.4345L53.3546 45.4403L53.3544 45.446L53.3543 45.4518L53.3542 45.4576L53.3541 45.4633L53.354 45.4691L53.3539 45.4748L53.3538 45.4805L53.3537 45.4863L53.3535 45.492L53.3534 45.4977L53.3533 45.5034L53.3532 45.5091L53.3531 45.5148L53.353 45.5205L53.3529 45.5262L53.3528 45.5319L53.3527 45.5375L53.3525 45.5432L53.3524 45.5489L53.3523 45.5545L53.3522 45.5602L53.3521 45.5658L53.352 45.5714L53.3519 45.577L53.3518 45.5827L53.3517 45.5883L53.3515 45.5939L53.3514 45.5995L53.3513 45.605L53.3512 45.6106L53.3511 45.6162L53.351 45.6217L53.3509 45.6273L53.3508 45.6328L53.3507 45.6383L53.3506 45.6439L53.3505 45.6494L53.3503 45.6549L53.3502 45.6604L53.3501 45.6659L53.35 45.6713L53.3499 45.6768L53.3498 45.6823L53.3497 45.6877L53.3496 45.6931L53.3495 45.6986L53.3494 45.704L53.3493 45.7094L53.3492 45.7148L53.3491 45.7202L53.349 45.7256L53.3489 45.7309L53.3487 45.7363L53.3486 45.7416L53.3485 45.747L53.3484 45.7523L53.3483 45.7576L53.3482 45.7629L53.3481 45.7682L53.348 45.7735L53.3479 45.7787L53.3478 45.784L53.3477 45.7892L53.3476 45.7945L53.3475 45.7997L53.3474 45.8049L53.3473 45.8101L53.3472 45.8153L53.3471 45.8205L53.347 45.8256L53.3469 45.8308L53.3468 45.8359L53.3467 45.8411L53.3466 45.8462L53.3465 45.8513L53.3464 45.8564L53.3463 45.8614L53.3462 45.8665L53.3461 45.8715L53.346 45.8766L53.3459 45.8816L53.3458 45.8866L53.3457 45.8916L53.3456 45.8966L53.3455 45.9015L53.3454 45.9065L53.3453 45.9114L53.3452 45.9164L53.3451 45.9213L53.345 45.9262L53.3449 45.931L53.3448 45.9359L53.3447 45.9408L53.3446 45.9456L53.3445 45.9504L53.3445 45.9552L53.3444 45.96L53.3443 45.9648L53.3442 45.9696L53.3441 45.9743L53.344 45.9791L53.3439 45.9838L53.3438 45.9885L53.3437 45.9932L53.3436 45.9978L53.3435 46.0025L53.3434 46.0071L53.3433 46.0117L53.3433 46.0164L53.3432 46.0209L53.3431 46.0255L53.343 46.0301L53.3429 46.0346L53.3428 46.0391L53.3427 46.0436L53.3426 46.0481L53.3425 46.0526L53.3425 46.0571L53.3424 46.0615C53.3352 46.4276 53.5058 46.7084 53.7184 46.9104C53.918 47.1002 54.175 47.2414 54.4105 47.3553C54.5492 47.4224 54.713 47.4945 54.8701 47.5637C54.9694 47.6074 55.0661 47.6499 55.152 47.6892C55.396 47.8009 55.6138 47.9123 55.7953 48.0385L56.1615 48.2931C55.8238 48.2362 55.4591 48.1762 55.0755 48.115C53.1793 47.8126 50.8021 47.4794 48.9209 47.3659C48.462 47.3382 48.0457 47.2851 47.6434 47.2278C47.5524 47.2148 47.4613 47.2015 47.3701 47.1881C47.0642 47.1434 46.7579 47.0986 46.4558 47.0671C45.6515 46.9831 44.8313 46.9866 43.8312 47.2901C41.9604 47.8577 40.9915 48.9345 39.9119 50.1344C39.6249 50.4534 39.33 50.7811 39.0083 51.1103C38.0898 52.0499 37.0992 53.3832 36.3473 54.4647C35.9691 55.0087 35.647 55.4952 35.4194 55.8459C35.3591 55.9388 35.3054 56.0223 35.259 56.0948C35.1933 56.0768 35.1199 56.0569 35.0394 56.0356C34.6769 55.9395 34.1701 55.8132 33.5919 55.6921C32.4489 55.4527 30.9769 55.2227 29.7886 55.312C28.7206 55.3923 27.4345 55.7641 26.442 56.1015C25.94 56.2721 25.5022 56.4379 25.1896 56.561Z" fill="black" stroke="black"/>
</svg>
