<svg width="13" height="34" viewBox="0 0 13 34" fill="none" xmlns="http://www.w3.org/2000/svg">
<path d="M8.39265 20.0963C7.89339 20.0692 7.89338 20.0693 7.89338 20.0693L7.89336 20.0697L7.89328 20.0712L7.89296 20.0772L7.89168 20.1007L7.88672 20.1925L7.86786 20.5415L7.80045 21.793C7.7446 22.832 7.66997 24.2252 7.59488 25.642C7.44516 28.467 7.29231 31.4089 7.28467 31.7979C7.28086 31.9923 7.27821 32.1186 7.27128 32.2146C7.26444 32.309 7.25524 32.3398 7.25226 32.3482C7.25213 32.3486 7.25203 32.349 7.25192 32.3494C7.25023 32.3558 7.24591 32.3722 7.07373 32.5392C7.05326 32.5414 7.01552 32.5431 6.95396 32.5386C6.79408 32.5267 6.57814 32.4808 6.29979 32.4097C6.2008 32.3844 6.09451 32.356 5.98283 32.326C5.50761 32.1988 4.93482 32.0454 4.41165 31.999C3.65389 31.9318 2.6911 31.9132 1.92724 31.911C1.64087 31.9101 1.38036 31.9116 1.16621 31.9137L1.46692 29.8397C1.61321 29.8125 1.79351 29.7757 1.99022 29.7284C2.47209 29.6124 3.11475 29.4188 3.58178 29.1126C4.17048 28.7265 4.45308 28.402 4.85601 27.8929C5.25485 27.389 5.57328 26.6725 5.78551 26.119C5.89428 25.8354 5.9802 25.5809 6.03901 25.3971C6.06846 25.305 6.09124 25.2303 6.10681 25.1781C6.11459 25.152 6.12058 25.1314 6.12471 25.1172L6.12949 25.1005L6.13082 25.0958L6.13121 25.0944L6.13135 25.0939L6.13139 25.0937C6.13141 25.0937 6.13143 25.0936 5.64997 24.9587L6.13143 25.0936L6.13676 25.0746L6.14057 25.0552L7.39972 18.6565L9.8893 7.36575L9.88933 7.36576L9.89056 7.35986L9.40103 7.25809L9.89058 7.35979L9.89062 7.35957L9.89079 7.35874L9.89148 7.35545L9.89417 7.34247L9.90467 7.29191L9.94449 7.09979C9.97879 6.93412 10.0278 6.69707 10.0866 6.41144C10.2043 5.84023 10.3612 5.07451 10.5185 4.29681C10.6756 3.51943 10.8333 2.72875 10.9523 2.10813C11.0096 1.80921 11.0583 1.54781 11.0937 1.34558C11.1834 1.36943 11.3076 1.3911 11.4448 1.37276C11.3915 1.6533 11.3316 1.96637 11.2673 2.30036C11.0191 3.58923 10.7048 5.18609 10.4391 6.42701C10.1436 7.80692 9.83201 8.92016 9.52854 10.0045C9.46235 10.241 9.39655 10.4761 9.33138 10.7124C8.96757 12.0311 8.62833 13.3683 8.37243 15.1169C8.23073 16.0851 8.11109 17.3244 8.02715 18.3149C7.98506 18.8116 7.95173 19.2484 7.92892 19.561C7.91751 19.7174 7.90873 19.8428 7.90279 19.9293L7.89604 20.0287L7.89431 20.0546L7.89387 20.0613L7.89376 20.0631L7.89373 20.0635L7.89372 20.0637L8.39265 20.0963ZM8.39265 20.0963L7.89339 20.0692L7.89368 20.0637L8.39265 20.0963Z" fill="black" stroke="black"/>
</svg>
