<svg width="28" height="95" viewBox="0 0 28 95" fill="none" xmlns="http://www.w3.org/2000/svg">
<path d="M26.4172 6.66254L26.9079 2.00128C26.5968 2.31339 26.2305 2.68554 25.8362 3.09554C24.6807 4.29715 23.3 5.80776 22.3558 7.08159C20.4498 9.65319 19.6023 11.3434 18.2154 14.1093C18.1312 14.2772 18.045 14.449 17.9565 14.6252C16.5973 17.3317 15.9081 19.1331 14.9548 21.6243C14.752 22.1543 14.5372 22.7156 14.3015 23.3235C10.5641 32.9617 9.00154 38.5927 6.69292 48.6823C4.65709 57.5798 3.97226 62.6717 2.82477 71.7469C2.25873 76.2236 1.76287 81.9859 1.4083 86.6345C1.2311 88.9577 1.08935 91.0005 0.991904 92.4625C0.96355 92.888 0.938947 93.2642 0.918316 93.5838C1.3074 93.2275 1.79272 92.7759 2.31576 92.2722C3.58635 91.0487 5.05149 89.5445 5.91284 88.3576C7.62679 85.9959 8.45302 84.2575 9.16534 82.0301C9.24194 81.7906 9.36402 81.1471 9.52006 80.1412C9.67319 79.1539 9.85317 77.8593 10.0502 76.3519C10.444 73.3377 10.9046 69.4829 11.3528 65.5555C12.2496 57.6958 13.094 49.5668 13.2544 47.3087C13.5079 43.739 14.4365 38.5405 15.1649 34.4628C15.3697 33.3159 15.5588 32.2576 15.7125 31.3492C16.4244 27.142 17.8865 22.1789 19.3524 17.9887C20.0897 15.8815 21.0157 13.6783 21.8998 11.8547C22.3418 10.9429 22.7757 10.1212 23.1727 9.45117C23.5641 8.79053 23.9373 8.2466 24.2613 7.91458C24.8818 7.27871 25.5145 6.94929 26.0027 6.7799C26.1575 6.72619 26.2973 6.6887 26.4172 6.66254Z" fill="black" stroke="black"/>
</svg>
