<svg width="69" height="83" viewBox="0 0 69 83" fill="none" xmlns="http://www.w3.org/2000/svg">
<path d="M67.5522 71.3431C67.3372 71.3291 67.056 71.31 66.7208 71.2854C65.9058 71.2254 64.7707 71.1329 63.4901 71.0023C60.9369 70.7419 57.7763 70.3277 55.4233 69.712C50.9188 68.5334 48.3045 67.7062 44.246 65.339C39.5983 62.6283 37.0043 60.6416 33.7157 56.3384C30.3405 51.9217 28.8851 48.8345 27.7017 43.3995C26.3679 37.2738 26.9762 31.8816 28.5171 26.4999C29.3005 23.7639 31.2531 20.2705 32.9807 17.4943C33.8493 16.0985 34.6696 14.8707 35.2727 13.9917C35.5744 13.5521 35.822 13.1995 35.9943 12.9565C36.0266 12.911 36.0562 12.8693 36.0831 12.8316L29.8825 1.01604C29.721 1.19628 29.5237 1.41619 29.2985 1.6669C28.6505 2.38825 27.7708 3.36478 26.8447 4.38526C25.0012 6.41647 22.9481 8.64984 22.1876 9.36738C20.879 10.6022 19.1057 12.1558 17.6639 13.3972C16.9421 14.0187 16.3018 14.5634 15.8418 14.9527C15.6118 15.1473 15.4269 15.3032 15.2994 15.4105L15.2581 15.4452L15.2426 15.6009L15.1412 16.6165C15.0535 17.493 14.9274 18.7483 14.774 20.2643C14.4671 23.2961 14.0506 27.3703 13.6124 31.5397C13.1742 35.7088 12.714 39.9743 12.3198 43.3881C11.9278 46.7825 11.5965 49.3785 11.4144 50.1727C10.7048 53.2681 9.90376 55.206 8.09098 57.963C7.14009 59.4092 5.62251 60.9836 4.36473 62.181C3.73187 62.7835 3.15723 63.2976 2.74065 63.6612C2.53227 63.8431 2.36321 63.9875 2.24591 64.0868C2.24023 64.0916 2.23467 64.0963 2.22922 64.1009L1.17437 81.1413C1.27435 81.0441 1.38099 80.9405 1.49361 80.8315C2.25477 80.0942 3.28977 79.1023 4.38406 78.0851C5.47749 77.0687 6.63409 76.0233 7.63751 75.1805C8.13897 74.7593 8.60659 74.3849 9.01167 74.0888C9.4076 73.7994 9.77408 73.5619 10.0657 73.4386C10.3801 73.3056 10.9068 73.2218 11.5265 73.1614C12.1695 73.0988 12.9823 73.0561 13.9157 73.0318C15.7836 72.9832 18.1586 73.008 20.6729 73.1009C25.691 73.2862 31.3153 73.7446 34.589 74.4474C37.792 75.135 43.2673 75.8754 48.4387 76.5311C49.7227 76.6939 50.9887 76.8516 52.1954 77.0019C55.8276 77.4542 58.923 77.8397 60.3601 78.0978C62.2719 78.4413 64.1825 78.8794 65.613 79.231C66.3289 79.4069 66.9257 79.5614 67.3438 79.6721C67.3569 79.6755 67.3698 79.6789 67.3825 79.6823L67.5522 71.3431Z" fill="black" stroke="black"/>
</svg>
