<svg width="45" height="46" viewBox="0 0 45 46" fill="none" xmlns="http://www.w3.org/2000/svg">
<path d="M3.58437 17.515L3.58436 17.515L3.58414 17.517L3.58414 17.5171L3.58384 17.5198C3.37853 19.4068 3.30383 20.0932 3.66656 21.8988C3.78343 22.4805 3.79161 22.997 3.77882 23.5847C3.77575 23.726 3.77148 23.8714 3.767 24.0236C3.75279 24.5073 3.73656 25.0593 3.75047 25.7677C3.76821 26.6716 3.62348 27.6391 3.47409 28.6379C3.45865 28.7411 3.44317 28.8446 3.42781 28.9484C3.26262 30.0649 3.10458 31.2523 3.12742 32.5569C3.12795 32.5588 3.12854 32.5609 3.1292 32.5632C3.13714 32.5909 3.15124 32.6332 3.17356 32.6925C3.21799 32.8106 3.28567 32.9713 3.37588 33.1725C3.5557 33.5736 3.8141 34.1111 4.12691 34.7412C4.7519 36.0001 5.58513 37.6106 6.41949 39.2005C7.25351 40.7898 8.08723 42.3558 8.71254 43.5246C9.02516 44.109 9.28564 44.594 9.46793 44.9328L9.48614 44.9666C9.58893 44.8944 9.70711 44.8116 9.83897 44.7199C10.3489 44.3653 11.064 43.8761 11.8853 43.337C13.522 42.2629 15.602 40.9768 17.3225 40.1713C20.7318 38.5752 23.2331 37.7423 27.2021 36.9174C30.9999 36.1282 33.2357 35.8383 37.1332 35.9582C38.6577 36.0051 40.5785 36.2556 42.1048 36.4911C42.8708 36.6093 43.5428 36.7246 44.0234 36.8103C44.0669 36.8181 44.1089 36.8256 44.1492 36.8329C44.1448 36.78 44.1401 36.7241 44.1351 36.6652C44.0906 36.136 44.0241 35.3667 43.9363 34.4071C43.7607 32.4878 43.5002 29.8079 43.1602 26.7657C42.4797 20.6764 41.483 13.1541 40.2163 7.37511C40.086 6.78051 39.9577 6.13906 39.8343 5.52166C39.7446 5.07357 39.6576 4.63816 39.5741 4.24253C39.4728 3.76239 39.375 3.33127 39.2795 2.97687C39.1813 2.61262 39.0947 2.3649 39.024 2.23025C38.8321 1.86453 38.6726 1.60849 38.4872 1.41582C38.3255 1.24777 38.1316 1.11543 37.8496 1.01704L36.9225 1.03524L36.9721 3.55957L36.9846 4.19587L36.3642 4.05758L36.3639 4.05752L36.3637 4.05747L36.3634 4.05741L36.3617 4.05704L36.347 4.05401C36.3329 4.05117 36.3103 4.04677 36.2796 4.04125C36.2182 4.03021 36.1242 4.0147 36.0002 3.99822C35.7523 3.96526 35.385 3.92847 34.9192 3.91578C33.9875 3.89039 32.6645 3.9615 31.1164 4.3509C29.4692 4.76523 28.1477 4.84176 27.229 4.81207C26.7698 4.79723 26.4118 4.75589 26.1644 4.71714C26.0407 4.69776 25.9447 4.67904 25.8776 4.6646C25.844 4.65738 25.8177 4.65124 25.7987 4.64661L25.7757 4.64088L25.7719 4.63987L25.7717 4.63982L25.7597 4.6369L25.7123 4.62536C25.6706 4.61522 25.6089 4.60031 25.5297 4.58132C25.3712 4.54334 25.1423 4.48905 24.8617 4.42399C24.3002 4.29381 23.5325 4.12075 22.7066 3.94896C21.0285 3.5999 19.1913 3.27419 18.3143 3.29141L8.48554 3.48435C7.31509 3.50733 5.57914 3.34778 4.06871 3.18902C3.68859 3.14906 3.3205 3.1089 2.97704 3.07132L2.90368 3.06329C2.58777 3.02873 2.29439 2.99662 2.0317 2.96901C1.62178 2.92593 1.30825 2.89636 1.10599 2.88361C1.0621 3.01216 1.01757 3.20684 0.976944 3.46674C0.887072 4.04174 0.832775 4.82293 0.801468 5.62261C0.77033 6.41799 0.762506 7.21472 0.762518 7.81377C0.76252 7.9302 0.762818 8.03906 0.763297 8.13887C1.11535 8.08075 1.59695 8.08308 2.04737 8.36439C2.78784 8.82684 3.27833 9.19722 3.75654 10.0196C4.19404 10.7719 4.25334 11.4613 4.18962 12.1355C4.16061 12.4424 4.10536 12.7526 4.05186 13.0529C4.04862 13.0711 4.04538 13.0893 4.04216 13.1074C3.98457 13.4312 3.92888 13.7533 3.89631 14.0982C3.84665 14.624 3.81055 15.056 3.776 15.4695C3.72295 16.1042 3.67355 16.6954 3.58437 17.515ZM3.12375 32.5421C3.12374 32.5421 3.12386 32.5427 3.12418 32.5441L3.12375 32.5421Z" fill="black" stroke="black"/>
</svg>
