<svg width="66" height="104" viewBox="0 0 66 104" fill="none" xmlns="http://www.w3.org/2000/svg">
<path d="M63.2654 100.492L65.1853 7.63192L64.8459 7.5541L63.1127 7.15677L59.5038 6.32945C59.3882 6.30295 59.2748 6.27639 59.16 6.2495C57.7889 5.92826 56.2133 5.55911 48.1826 4.67155C43.8151 4.18885 39.0679 3.52453 35.4147 2.98126C33.5876 2.70956 32.0331 2.46799 30.9353 2.29433C30.3864 2.20749 29.9516 2.13763 29.654 2.08945C29.5051 2.06537 29.3906 2.0467 29.3132 2.03405L29.2253 2.01965L29.2029 2.01598L29.1983 2.01521L29.1981 2.01518L29.1974 2.01506L29.1972 2.01504L29.1958 2.0148L29.1954 2.01474L29.1941 2.01455L29.1808 2.01245L29.1276 2.00416C29.0806 1.99688 29.011 1.98616 28.9208 1.97253C28.7405 1.94527 28.4783 1.90635 28.1513 1.85984C27.4972 1.76681 26.585 1.64356 25.5529 1.52269C23.4815 1.28011 20.9529 1.05035 19.0574 1.08757C18.5466 1.09759 17.6027 1.07489 16.4806 1.0479C15.513 1.02463 14.413 0.998171 13.344 0.98677C12.1766 0.974318 11.036 0.979344 10.1093 1.02371C9.64549 1.04591 9.24284 1.07763 8.92095 1.12051C8.58521 1.16522 8.38318 1.21667 8.29066 1.25849C7.69029 1.52986 6.88975 2.08278 6.215 2.59187C5.88325 2.84218 5.5914 3.07457 5.38252 3.24437C5.32073 3.2946 5.26629 3.33928 5.2203 3.37726L4.55278 26.6123L4.55283 26.6123L4.55252 26.6196L2.73004 68.6328L2.73 68.6336L1.18252 103.154C1.32323 103.116 1.48407 103.074 1.66279 103.028C2.37459 102.843 3.37032 102.59 4.50641 102.317C6.7742 101.773 9.61756 101.145 11.8791 100.827C16.1661 100.223 19.0302 100.21 22.7023 100.195C23.7006 100.19 24.7587 100.186 25.9213 100.169C30.511 100.103 33.0898 100.154 37.6727 100.317C38.5629 100.349 39.3001 100.403 39.9952 100.454C40.1751 100.467 40.3521 100.48 40.5282 100.493C41.386 100.553 42.2356 100.599 43.326 100.584C44.9893 100.561 46.2746 100.351 47.5911 100.133L47.6305 100.127C48.9359 99.9106 50.2763 99.6887 52.0034 99.6571C54.2891 99.6152 55.6244 99.7211 57.7944 99.893C57.897 99.9012 58.0014 99.9094 58.1078 99.9179C59.2327 100.007 60.6627 100.169 61.8069 100.308C62.3799 100.378 62.8832 100.442 63.2431 100.489C63.2506 100.49 63.258 100.491 63.2654 100.492Z" fill="black" stroke="black"/>
</svg>
