<svg width="107" height="296" viewBox="0 0 107 296" fill="none" xmlns="http://www.w3.org/2000/svg">
<path d="M37.2631 2.75512C37.1027 3.04177 36.9264 3.35701 36.7356 3.69836C35.7364 5.48662 34.341 7.99166 32.7568 10.8586C29.5879 16.5935 25.6651 23.7732 22.6448 29.5609C16.3962 41.5349 10.8572 55.63 7.77622 68.7665C5.12743 80.0602 3.39523 102.324 2.66684 114.679C1.68727 131.294 2.01404 141.244 2.52453 156.788C2.57093 158.201 2.61885 159.661 2.66745 161.175C2.85196 166.926 3.37387 174.28 3.85026 180.202C4.08836 183.162 4.31492 185.762 4.48195 187.622C4.56547 188.552 4.63409 189.296 4.68183 189.809C4.7057 190.065 4.72434 190.263 4.73702 190.397L4.75146 190.549L4.75514 190.587L4.75607 190.597L4.7563 190.6L4.75636 190.6C4.75637 190.6 4.75637 190.6 4.25866 190.648L4.75637 190.6L4.76959 190.738L4.71018 190.863L1.50172 197.608L1.86149 201.096C1.96222 201.024 2.07082 200.949 2.18562 200.874C2.7779 200.485 3.62179 200.025 4.42209 199.978C4.57125 199.969 4.72281 199.945 4.899 199.918L4.93247 199.912C5.11071 199.884 5.32273 199.852 5.5307 199.85C5.743 199.848 5.98605 199.877 6.22071 199.998C6.46272 200.122 6.65284 200.321 6.79192 200.586C6.86893 200.732 6.95088 200.989 7.03087 201.266C7.11652 201.562 7.21559 201.939 7.32201 202.365C7.53505 203.218 7.78138 204.281 8.01472 205.318C8.2482 206.355 8.46931 207.369 8.632 208.123C8.71337 208.5 8.78015 208.812 8.8266 209.03L8.83286 209.059L10.0121 209.33C10.0342 209.333 10.0579 209.337 10.083 209.344C10.1487 209.36 10.2217 209.387 10.2999 209.43C10.456 209.515 10.6259 209.657 10.8035 209.885C11.1537 210.333 11.5684 211.155 11.9836 212.688C12.6001 214.963 13.1101 216.544 13.7487 218.525C13.951 219.152 14.1661 219.819 14.4016 220.561C17.1936 229.357 21.3724 240.228 24.859 249.003C26.2286 252.45 27.4903 255.571 28.5185 258.114C28.7988 258.807 29.0616 259.458 29.3046 260.06C29.8716 261.465 30.331 262.611 30.6494 263.43C30.8083 263.839 30.9337 264.17 31.02 264.412C31.0629 264.533 31.098 264.637 31.1231 264.72C31.1289 264.739 31.1345 264.758 31.1397 264.777C31.1457 264.799 31.1513 264.82 31.1561 264.841C31.1629 264.87 31.1765 264.931 31.1779 264.999C31.1866 265.441 31.0891 265.965 31.0004 266.352C30.9548 266.552 30.9087 266.726 30.874 266.85C30.8666 266.877 30.8597 266.901 30.8533 266.923L30.8763 267.026L31.0217 267.676C31.1472 268.237 31.327 269.041 31.5441 270.015C31.9783 271.963 32.5617 274.587 33.1586 277.294C34.3497 282.696 35.6017 288.459 35.8196 289.796C36.2296 292.313 37.3322 293.708 38.0373 294.386C38.2996 294.638 38.8219 294.8 39.3828 294.882C39.5564 294.907 39.7211 294.923 39.8639 294.934L39.8786 294.314C39.8955 293.597 39.9197 292.572 39.9486 291.336C40.0065 288.865 40.0833 285.555 40.1592 282.197C40.3113 275.47 40.4588 268.584 40.4442 267.842C40.4263 266.926 40.8629 266.054 41.3894 265.306C41.9173 264.556 42.5876 263.859 43.1366 263.288L43.1483 263.275C43.3055 263.112 43.5186 263.054 43.7214 263.089C43.8897 263.117 44.0253 263.204 44.1175 263.276C44.307 263.423 44.5003 263.653 44.6892 263.913C45.0766 264.447 45.5526 265.255 46.0789 266.233C47.1354 268.194 48.4348 270.911 49.6949 273.653C50.9561 276.398 52.182 279.178 53.0925 281.272C53.5477 282.319 53.9243 283.194 54.187 283.808C54.2482 283.951 54.3033 284.08 54.3517 284.193C54.3559 284.203 54.3601 284.213 54.3642 284.222C54.4555 284.162 54.5579 284.094 54.6702 284.02C55.1724 283.687 55.8727 283.219 56.6653 282.681C58.2526 281.603 60.2015 280.248 61.6693 279.124C62.3366 278.613 63.0262 278.169 63.6584 277.761C64.0175 277.529 64.358 277.31 64.6653 277.097C65.5466 276.486 66.2563 275.871 66.7503 275.01C67.6646 273.416 68.4797 271.586 69.4491 269.409C69.6259 269.012 69.8079 268.604 69.9965 268.183C71.52 264.785 73.2234 260.321 74.5484 256.7C75.2102 254.891 75.7766 253.295 76.1775 252.151C76.3779 251.58 76.5369 251.121 76.6458 250.805C76.6685 250.74 76.689 250.68 76.7073 250.627C76.6924 250.613 76.677 250.599 76.6609 250.584C76.4754 250.412 76.2083 250.161 75.8806 249.845C75.2256 249.213 74.3274 248.319 73.3541 247.27C71.4175 245.181 69.1461 242.437 67.9261 239.904C65.6636 235.206 65.163 232.072 64.9784 226.904C64.7777 221.284 65.2834 217.89 67.3858 212.66C69.4272 207.582 71.2488 204.769 75.221 200.988C78.7712 197.608 81.2701 196.015 85.8443 194.249C88.8075 193.105 90.9081 192.816 93.5798 192.448C94.2557 192.355 94.9681 192.257 95.7403 192.138C97.8086 191.821 100.467 191.579 102.599 191.417C103.668 191.335 104.607 191.273 105.28 191.232C105.507 191.218 105.704 191.206 105.865 191.197L105.235 176.71L79.8588 193.737L79.8577 193.738L79.8192 193.767L79.6688 193.881L79.0947 194.317C78.5983 194.694 77.8851 195.235 77.0175 195.893C75.2824 197.21 72.93 198.993 70.461 200.862C65.5255 204.597 60.1175 208.678 58.2489 210.041C56.3836 211.402 55.3719 212.084 54.4721 212.582C53.8092 212.95 53.2057 213.217 52.3824 213.582C52.0955 213.709 51.7819 213.848 51.4297 214.007C50.0757 214.619 48.5601 215.222 47.2368 215.675C46.5753 215.902 45.9568 216.093 45.4274 216.229C44.9083 216.363 44.4407 216.454 44.0956 216.46L44.0889 216.461L44.082 216.461L44.075 216.461L44.0678 216.461L44.0604 216.461L44.053 216.461L44.0453 216.461L44.0375 216.462L44.0296 216.462L44.0215 216.462L44.0132 216.462L44.0048 216.462L43.9963 216.462L43.9876 216.463L43.9788 216.463L43.9698 216.463L43.9607 216.463L43.9514 216.463L43.942 216.463L43.9324 216.464L43.9227 216.464L43.9129 216.464L43.9029 216.464L43.8928 216.464L43.8825 216.465L43.8721 216.465L43.8616 216.465L43.8509 216.465L43.8401 216.465L43.8291 216.466L43.818 216.466L43.8068 216.466L43.7955 216.466L43.784 216.467L43.7723 216.467L43.7606 216.467L43.7487 216.467L43.7367 216.467L43.7245 216.468L43.7122 216.468L43.6998 216.468L43.6873 216.468L43.6746 216.469L43.6618 216.469L43.6489 216.469L43.6358 216.469L43.6227 216.47L43.6094 216.47L43.596 216.47L43.5824 216.471L43.5687 216.471L43.5549 216.471L43.541 216.471L43.527 216.472L43.5128 216.472L43.4986 216.472L43.4842 216.472L43.4697 216.473L43.455 216.473L43.4403 216.473L43.4254 216.474L43.4105 216.474L43.3954 216.474L43.3802 216.474L43.3648 216.475L43.3494 216.475L43.3339 216.475L43.3182 216.476L43.3024 216.476L43.2866 216.476L43.2706 216.477L43.2545 216.477L43.2383 216.477L43.222 216.478L43.2055 216.478L43.189 216.478L43.1724 216.479L43.1556 216.479L43.1388 216.479L43.1219 216.48L43.1048 216.48L43.0877 216.48L43.0704 216.481L43.0531 216.481L43.0356 216.481L43.0181 216.482L43.0004 216.482L42.9827 216.482L42.9648 216.483L42.9469 216.483L42.9288 216.483L42.9107 216.484L42.8925 216.484L42.8741 216.484L42.8557 216.485L42.8372 216.485L42.8186 216.486L42.7999 216.486L42.7811 216.486L42.7622 216.487L42.7433 216.487L42.7242 216.487L42.7051 216.488L42.6858 216.488L42.6665 216.489L42.6471 216.489L42.6276 216.489L42.608 216.49L42.5884 216.49L42.5686 216.49L42.5488 216.491L42.5289 216.491L42.5089 216.492L42.4888 216.492L42.4686 216.492L42.4484 216.493L42.4281 216.493L42.4077 216.494L42.3872 216.494L42.3667 216.494L42.346 216.495L42.3253 216.495L42.3046 216.496L42.2837 216.496L42.2628 216.496L42.2418 216.497L42.2207 216.497L42.1996 216.498L42.1783 216.498L42.157 216.499L42.1357 216.499L42.1143 216.499L42.0928 216.5L42.0712 216.5L42.0496 216.501L42.0279 216.501L42.0061 216.501L41.9843 216.502L41.9624 216.502L41.9404 216.503L41.9184 216.503L41.8963 216.504L41.8742 216.504L41.852 216.504L41.8297 216.505L41.8074 216.505L41.785 216.506L41.7625 216.506L41.74 216.507L41.7175 216.507L41.6948 216.508L41.6722 216.508L41.6494 216.508L41.6266 216.509L41.6038 216.509L41.5809 216.51L41.558 216.51L41.535 216.511L41.5119 216.511L41.4888 216.512L41.4657 216.512L41.4425 216.513L41.4192 216.513L41.3959 216.513L41.3726 216.514L41.3492 216.514L41.3257 216.515L41.3022 216.515L41.2787 216.516L41.2551 216.516L41.2315 216.517L41.2078 216.517L41.1841 216.518L41.1604 216.518L41.1366 216.519L41.1128 216.519L41.0889 216.519L41.065 216.52L41.0411 216.52L41.0171 216.521L40.993 216.521L40.969 216.522L40.9449 216.522L40.9208 216.523L40.8966 216.523L40.8724 216.524L40.8482 216.524L40.8239 216.525L40.7996 216.525L40.7753 216.526L40.7509 216.526L40.7266 216.527L40.7021 216.527L40.6777 216.528L40.6532 216.528L40.6287 216.529L40.6042 216.529L40.5797 216.529L40.5551 216.53L40.5305 216.53L40.5059 216.531L40.4812 216.531L40.4565 216.532L40.4319 216.532L40.4071 216.533L40.3824 216.533L40.3577 216.534L40.3329 216.534L40.3081 216.535L40.2833 216.535L40.2585 216.536L40.2336 216.536L40.2087 216.537L40.1839 216.537L40.159 216.538L40.1341 216.538L40.1092 216.539L40.0842 216.539L40.0593 216.54L40.0343 216.54L40.0094 216.541L39.9844 216.541L39.9594 216.542L39.9344 216.542L39.9094 216.543L39.8844 216.543L39.8594 216.544L39.8344 216.544L39.8093 216.545L39.7843 216.545L39.7593 216.546L39.7342 216.546L39.7092 216.547L39.6842 216.547L39.6591 216.548L39.6341 216.548L39.609 216.549L39.584 216.549L39.5589 216.55L39.5339 216.55L39.5088 216.55L39.4838 216.551L39.4588 216.551L39.4337 216.552L39.4087 216.552L39.3837 216.553L39.3587 216.553L39.3337 216.554L39.3087 216.554L39.2837 216.555L39.2587 216.555L39.2337 216.556L39.2088 216.556L39.1838 216.557L39.1589 216.557L39.134 216.558L39.1091 216.558L39.0842 216.559L39.0593 216.559L39.0344 216.56L39.0095 216.56L38.9847 216.561L38.9599 216.561L38.9351 216.562L38.9103 216.562L38.8855 216.563L38.8608 216.563L38.8361 216.564L38.8114 216.564L38.7867 216.565L38.762 216.565L38.7374 216.566L38.7128 216.566L38.6882 216.567L38.6636 216.567L38.6391 216.568L38.6145 216.568L38.5901 216.569L38.5656 216.569L38.5412 216.569L38.5168 216.57L38.4924 216.57L38.468 216.571L38.4437 216.571L38.4195 216.572L38.3952 216.572L38.371 216.573L38.3468 216.573L38.3227 216.574L38.2985 216.574L38.2745 216.575L38.2504 216.575L38.2264 216.576L38.2024 216.576L38.1785 216.577L38.1546 216.577L38.1308 216.578L38.107 216.578L38.0832 216.578L38.0595 216.579L38.0358 216.579L38.0121 216.58L37.9885 216.58L37.965 216.581L37.9414 216.581L37.918 216.582L37.8946 216.582L37.8712 216.583L37.8478 216.583L37.8246 216.584L37.8013 216.584L37.7781 216.584L37.755 216.585L37.7319 216.585L37.7089 216.586L37.6859 216.586L37.663 216.587L37.6401 216.587L37.6173 216.588L37.5945 216.588L37.5718 216.589L37.5492 216.589L37.5266 216.589L37.504 216.59L37.4815 216.59L37.4591 216.591L37.4367 216.591L37.4144 216.592L37.3922 216.592L37.37 216.592L37.3479 216.593L37.3258 216.593L37.3038 216.594L37.2819 216.594L37.26 216.595L37.2382 216.595L37.2165 216.595L37.1948 216.596L37.1732 216.596L37.1517 216.597L37.1302 216.597L37.1088 216.598L37.0875 216.598L37.0662 216.598L37.045 216.599L37.0239 216.599L37.0029 216.6L36.9819 216.6L36.961 216.601L36.9402 216.601L36.9194 216.601L36.8987 216.602L36.8781 216.602L36.8576 216.603L36.8372 216.603L36.8168 216.603L36.7965 216.604L36.7763 216.604L36.7562 216.605L36.7361 216.605L36.7162 216.605L36.6963 216.606L36.6765 216.606L36.6568 216.606L36.6372 216.607L36.6176 216.607L36.5981 216.608L36.5788 216.608L36.5595 216.608L36.5403 216.609L36.5212 216.609L36.5021 216.61L36.4832 216.61L36.4644 216.61L36.4456 216.611L36.427 216.611L36.4084 216.611L36.3899 216.612L36.3715 216.612L36.3532 216.612L36.335 216.613L36.3169 216.613L36.2989 216.614L36.281 216.614L36.2632 216.614L36.2455 216.615L36.2279 216.615L36.2104 216.615L36.193 216.616L36.1757 216.616L36.1584 216.616L36.1413 216.617L36.1243 216.617L36.1074 216.617L36.0906 216.618L36.0739 216.618L36.0573 216.618L36.0408 216.619L36.0245 216.619L36.0082 216.619L35.992 216.62L35.976 216.62L35.96 216.62L35.9442 216.62L35.9285 216.621L35.9129 216.621L35.8974 216.621L35.882 216.622L35.8667 216.622L35.8515 216.622L35.8365 216.623L35.8216 216.623L35.8067 216.623L35.792 216.623L35.7775 216.624L35.763 216.624L35.7486 216.624L35.7344 216.625L35.7203 216.625L35.7063 216.625L35.6924 216.625L35.6787 216.626L35.6651 216.626L35.6516 216.626L35.6382 216.626L35.625 216.627L35.6118 216.627L35.5988 216.627L35.586 216.628L35.5732 216.628L35.5606 216.628L35.5481 216.628L35.5357 216.628L35.5235 216.629L35.5114 216.629L35.4994 216.629L35.4876 216.629L35.4759 216.63L35.4643 216.63L35.4529 216.63L35.4416 216.63L35.4304 216.631L35.4193 216.631L35.4084 216.631L35.3977 216.631L35.3871 216.631L35.3766 216.632L35.3662 216.632L35.356 216.632L35.3459 216.632L35.336 216.632L35.3262 216.633L35.3166 216.633L35.3071 216.633L35.2977 216.633L35.2885 216.633L35.2794 216.634L35.2705 216.634L35.2617 216.634L35.2531 216.634L35.2446 216.634L35.2363 216.634L35.2281 216.635L35.2201 216.635L35.2122 216.635L35.2044 216.635L35.1969 216.635L35.1915 216.635L34.9859 216.798C34.7705 216.969 34.4619 217.213 34.0893 217.507C33.3441 218.095 32.3425 218.883 31.3174 219.684C30.2925 220.484 29.2428 221.298 28.4017 221.937C27.9814 222.257 27.6112 222.534 27.3214 222.744C27.046 222.944 26.8096 223.109 26.6769 223.179L26.5957 223.221C25.8742 223.601 24.9791 224.072 23.8013 224.044C23.0154 224.025 22.3579 223.939 21.7344 223.624C21.1142 223.31 20.5801 222.797 19.9798 222.028C19.3493 221.221 18.6007 219.638 17.8428 217.81C17.076 215.959 16.274 213.791 15.5447 211.765C13.1534 205.12 12.4034 200.461 11.4533 194.56C11.1803 192.865 10.8908 191.067 10.5412 189.089C8.49581 177.524 7.76302 170.942 6.9243 159.233C6.72887 156.505 6.52714 154.036 6.33716 151.711C5.66736 143.514 5.14363 137.105 5.55756 127.422C5.91926 118.96 6.22912 114.263 6.79053 105.818C7.40446 96.5823 9.80539 77.6498 11.71 69.2167C13.8117 59.9111 15.4753 53.969 19.6821 45.3683C22.3563 39.9011 24.4324 36.4015 27.2171 31.7072C27.7116 30.8736 28.2285 30.0023 28.7751 29.0756C30.357 26.3933 32.2576 23.638 33.7594 21.5571C34.511 20.5157 35.1641 19.6413 35.6295 19.0269C35.8622 18.7198 36.048 18.4775 36.1759 18.3119C36.2159 18.26 36.2503 18.2156 36.2786 18.1791L37.2631 2.75512Z" fill="black" stroke="black"/>
</svg>
