<svg width="59" height="57" viewBox="0 0 59 57" fill="none" xmlns="http://www.w3.org/2000/svg">
<path d="M33.8105 56.3172C33.9441 56.3698 34.0549 56.4147 34.1385 56.449C34.2454 56.4135 34.3986 56.3626 34.5921 56.2978C34.9949 56.1631 35.5722 55.9689 36.2696 55.7311C37.6647 55.2552 39.5394 54.605 41.4597 53.9069C43.3812 53.2083 45.3426 52.464 46.9132 51.7997C47.6991 51.4673 48.3801 51.1579 48.9067 50.8866C49.4547 50.6043 49.774 50.3934 49.8943 50.2683C50.0049 50.1532 50.1692 49.8667 50.3654 49.3685C50.5535 48.8909 50.7486 48.279 50.9451 47.574C51.3377 46.1653 51.7259 44.4223 52.0696 42.7181C52.413 41.0158 52.7104 39.3604 52.9221 38.1301C53.0279 37.5151 53.1122 37.0067 53.17 36.6522C53.1989 36.475 53.2212 36.3363 53.2362 36.242L53.2533 36.1346L53.2576 36.1073L53.2586 36.1009L53.2586 36.1004L53.2589 36.0988L53.259 36.0984L57.5113 7.92148C57.1308 7.96449 56.6098 8.02107 56.0191 8.07891C54.8022 8.19805 53.2756 8.32393 52.0713 8.34545C48.0272 8.41772 45.6963 8.23558 41.7303 7.40109C38.5174 6.72507 36.6482 6.273 33.6324 4.87507C32.2325 4.22615 30.6693 3.19401 29.4697 2.33695C28.8668 1.90616 28.3497 1.5152 27.9831 1.23178C27.969 1.22081 27.955 1.21 27.9413 1.19936C27.8777 1.36949 27.8026 1.57007 27.7175 1.79709C27.4275 2.57098 27.021 3.65215 26.555 4.8813C25.6234 7.33873 24.4527 10.3909 23.4996 12.7618C23.0496 13.881 22.6791 14.8706 22.3288 15.8064C21.5223 17.9606 20.8224 19.8299 19.5056 22.3399C19.3145 22.7043 19.1316 23.0694 18.9515 23.4288L18.9339 23.4641C18.749 23.8331 18.5666 24.1967 18.3853 24.5375C18.0281 25.2094 17.6523 25.8391 17.2293 26.279C17.1008 26.4127 16.7986 26.6466 16.4246 26.9235C16.0328 27.2137 15.5164 27.5838 14.9207 28.004C13.7289 28.8448 12.2108 29.8925 10.7176 30.9149C9.22399 31.9375 7.75376 32.936 6.65703 33.6787C6.10863 34.05 5.65355 34.3575 5.33555 34.5722L5.1466 34.6996C5.17723 34.8056 5.21131 34.9309 5.24564 35.0713C5.35332 35.5117 5.4673 36.1158 5.47965 36.745L5.47979 36.7518L5.47992 36.7587L5.48006 36.7658L5.4802 36.7729L5.48034 36.7802L5.48049 36.7875L5.48064 36.795L5.48078 36.8025L5.48093 36.8101L5.48109 36.8179L5.48124 36.8257L5.4814 36.8337L5.48155 36.8417L5.48171 36.8498L5.48187 36.8581L5.48204 36.8664L5.4822 36.8748L5.48237 36.8833L5.48254 36.8919L5.48271 36.9006L5.48288 36.9094L5.48306 36.9183L5.48323 36.9273L5.48341 36.9364L5.48359 36.9455L5.48377 36.9548L5.48396 36.9642L5.48414 36.9736L5.48433 36.9831L5.48452 36.9927L5.48471 37.0025L5.4849 37.0123L5.4851 37.0221L5.48529 37.0321L5.48549 37.0422L5.48569 37.0523L5.48589 37.0626L5.48609 37.0729L5.4863 37.0833L5.4865 37.0938L5.48671 37.1043L5.48692 37.115L5.48713 37.1257L5.48734 37.1366L5.48756 37.1475L5.48777 37.1585L5.48799 37.1696L5.48821 37.1807L5.48843 37.1919L5.48865 37.2033L5.48887 37.2147L5.4891 37.2261L5.48933 37.2377L5.48955 37.2493L5.48978 37.261L5.49002 37.2728L5.49025 37.2847L5.49048 37.2966L5.49072 37.3087L5.49096 37.3208L5.4912 37.3329L5.49144 37.3452L5.49168 37.3575L5.49192 37.3699L5.49217 37.3824L5.49241 37.3949L5.49266 37.4075L5.49291 37.4202L5.49316 37.433L5.49341 37.4458L5.49367 37.4587L5.49392 37.4717L5.49418 37.4847L5.49443 37.4978L5.49469 37.511L5.49495 37.5243L5.49521 37.5376L5.49548 37.551L5.49574 37.5644L5.49601 37.578L5.49627 37.5915L5.49654 37.6052L5.49681 37.6189L5.49708 37.6327L5.49735 37.6465L5.49763 37.6605L5.4979 37.6744L5.49818 37.6885L5.49845 37.7026L5.49873 37.7167L5.49901 37.731L5.49929 37.7453L5.49957 37.7596L5.49986 37.774L5.50014 37.7885L5.50042 37.803L5.50071 37.8176L5.501 37.8323L5.50129 37.847L5.50158 37.8617L5.50187 37.8766L5.50216 37.8914L5.50245 37.9064L5.50275 37.9214L5.50304 37.9364L5.50334 37.9515L5.50364 37.9667L5.50394 37.9819L5.50424 37.9972L5.50454 38.0125L5.50484 38.0278L5.50514 38.0433L5.50544 38.0587L5.50575 38.0743L5.50605 38.0898L5.50636 38.1055L5.50667 38.1212L5.50698 38.1369L5.50729 38.1527L5.5076 38.1685L5.50791 38.1844L5.50822 38.2003L5.50854 38.2163L5.50885 38.2323L5.50917 38.2483L5.50948 38.2645L5.5098 38.2806L5.51012 38.2968L5.51044 38.3131L5.51076 38.3294L5.51108 38.3457L5.5114 38.3621L5.51172 38.3785L5.51204 38.3949L5.51237 38.4115L5.51269 38.428L5.51302 38.4446L5.51335 38.4612L5.51367 38.4779L5.514 38.4946L5.51433 38.5113L5.51466 38.5281L5.51499 38.5449L5.51532 38.5618L5.51565 38.5787L5.51598 38.5957L5.51632 38.6126L5.51665 38.6296L5.51699 38.6467L5.51732 38.6638L5.51766 38.6809L5.51799 38.698L5.51833 38.7152L5.51867 38.7324L5.51901 38.7497L5.51935 38.767L5.51969 38.7843L5.52003 38.8016L5.52037 38.819L5.52071 38.8364L5.52105 38.8538L5.5214 38.8713L5.52174 38.8888L5.52208 38.9063L5.52243 38.9239L5.52277 38.9415L5.52312 38.9591L5.52346 38.9767L5.52381 38.9944L5.52416 39.0121L5.52451 39.0298L5.52485 39.0475L5.5252 39.0653L5.52555 39.0831L5.5259 39.1009L5.52625 39.1187L5.5266 39.1366L5.52695 39.1545L5.52731 39.1724L5.52766 39.1903L5.52801 39.2083L5.52836 39.2262L5.52872 39.2442L5.52907 39.2622L5.52942 39.2803L5.52978 39.2983L5.53013 39.3164L5.53049 39.3345L5.53084 39.3526L5.5312 39.3707L5.53155 39.3888L5.53191 39.407L5.53227 39.4251L5.53262 39.4433L5.53298 39.4615L5.53334 39.4797L5.5337 39.4979L5.53405 39.5162L5.53441 39.5344L5.53477 39.5527L5.53513 39.571L5.53549 39.5893L5.53585 39.6076L5.53621 39.6259L5.53657 39.6442L5.53693 39.6625L5.53729 39.6809L5.53765 39.6992L5.53801 39.7176L5.53837 39.7359L5.53873 39.7543L5.53909 39.7727L5.53945 39.7911L5.53981 39.8095L5.54017 39.8279L5.54053 39.8463L5.5409 39.8647L5.54126 39.8831L5.54162 39.9015L5.54198 39.9199L5.54234 39.9384L5.5427 39.9568L5.54307 39.9752L5.54343 39.9936L5.54379 40.0121L5.54415 40.0305L5.54451 40.0489L5.54487 40.0674L5.54524 40.0858L5.5456 40.1042L5.54596 40.1227L5.54632 40.1411L5.54668 40.1595L5.54705 40.1779L5.54741 40.1963L5.54777 40.2148L5.54813 40.2332L5.54849 40.2516L5.54885 40.27L5.54921 40.2884L5.54957 40.3068L5.54994 40.3251L5.5503 40.3435L5.55066 40.3619L5.55102 40.3803L5.55138 40.3986L5.55174 40.4169L5.5521 40.4353L5.55246 40.4536L5.55282 40.4719L5.55318 40.4902L5.55354 40.5085L5.55389 40.5268L5.55425 40.5451L5.55461 40.5633L5.55497 40.5816L5.55533 40.5998L5.55568 40.618L5.55604 40.6362L5.5564 40.6544L5.55676 40.6726L5.55711 40.6908L5.55747 40.7089L5.55782 40.727L5.55818 40.7451L5.55853 40.7632L5.55889 40.7813L5.55924 40.7994L5.5596 40.8174L5.55995 40.8354L5.56031 40.8534L5.56066 40.8714L5.56101 40.8893L5.56136 40.9073L5.56171 40.9252L5.56207 40.9431L5.56242 40.961L5.56277 40.9788L5.56312 40.9966L5.56347 41.0144L5.56382 41.0322L5.56416 41.05L5.56451 41.0677L5.56486 41.0854L5.56521 41.1031L5.56555 41.1207L5.5659 41.1383L5.56624 41.1559L5.56659 41.1735L5.56693 41.1911L5.56728 41.2086L5.56762 41.226L5.56796 41.2435L5.56831 41.2609L5.56865 41.2783L5.56899 41.2957L5.56933 41.313L5.56967 41.3303L5.57001 41.3476L5.57034 41.3648L5.57068 41.382L5.57102 41.3992L5.57136 41.4163L5.57169 41.4334L5.57203 41.4505L5.57236 41.4675L5.57269 41.4845L5.57303 41.5014L5.57336 41.5184L5.57369 41.5352L5.57402 41.5521L5.57435 41.5689L5.57468 41.5857L5.57501 41.6024L5.57534 41.6191L5.57566 41.6357L5.57599 41.6523L5.57631 41.6689L5.57664 41.6854L5.57696 41.7019L5.57728 41.7183L5.57761 41.7347L5.57793 41.7511L5.57825 41.7674L5.57857 41.7837L5.57889 41.7999L5.5792 41.8161L5.57952 41.8322L5.57984 41.8483L5.58015 41.8643L5.58046 41.8803L5.58078 41.8963L5.58109 41.9122L5.5814 41.928L5.58171 41.9438L5.58202 41.9596L5.58233 41.9753L5.58264 41.9909L5.58294 42.0065L5.58325 42.0221L5.58355 42.0376L5.58385 42.053L5.58416 42.0684L5.58446 42.0838L5.58476 42.0991L5.58506 42.1143L5.58536 42.1295L5.58565 42.1446L5.58595 42.1597L5.58624 42.1747L5.58654 42.1897L5.58683 42.2046L5.58712 42.2194L5.58741 42.2342L5.5877 42.249L5.58799 42.2636L5.58828 42.2783L5.58856 42.2928L5.58885 42.3073L5.58913 42.3218L5.58941 42.3361L5.58969 42.3505L5.58997 42.3647L5.59025 42.3789L5.59053 42.393L5.59081 42.4071L5.59108 42.4211L5.59135 42.4351L5.59163 42.4489L5.5919 42.4628L5.59217 42.4765L5.59244 42.4902L5.5927 42.5038L5.59297 42.5174L5.59323 42.5309L5.5935 42.5443L5.59376 42.5576L5.59402 42.5709L5.59428 42.5841L5.59454 42.5973L5.5948 42.6104L5.59505 42.6234L5.5953 42.6363L5.59556 42.6492L5.59581 42.662L5.59606 42.6747L5.59631 42.6873L5.59655 42.6999L5.5968 42.7124L5.59704 42.7248L5.59729 42.7372L5.59753 42.7495L5.59777 42.7617L5.598 42.7738L5.59824 42.7859L5.59848 42.7979L5.59871 42.8098L5.59894 42.8216L5.59917 42.8333L5.5994 42.845L5.59963 42.8566L5.59986 42.8681L5.60008 42.8796L5.6003 42.8909L5.60052 42.9022L5.60074 42.9134L5.60096 42.9245L5.60118 42.9355L5.60139 42.9465L5.60161 42.9573L5.60182 42.9681L5.60203 42.9788L5.60224 42.9894L5.60244 43L5.60265 43.0104L5.60285 43.0208L5.60305 43.0311L5.60325 43.0412L5.60345 43.0514L5.60365 43.0614L5.60384 43.0713L5.60404 43.0811L5.60423 43.0909L5.60442 43.1006L5.60461 43.1101L5.60479 43.1196L5.60498 43.129L5.60516 43.1383L5.60534 43.1475L5.60552 43.1566L5.6057 43.1657L5.60587 43.1746L5.60605 43.1834L5.60622 43.1922L5.60639 43.2008L5.60656 43.2094L5.60672 43.2179L5.60689 43.2262L5.60705 43.2345L5.60721 43.2427L5.60737 43.2508L5.60752 43.2588L5.60768 43.2667L5.60783 43.2744L5.60798 43.2821L5.60813 43.2897L5.60828 43.2972L5.60842 43.3046L5.60857 43.3119L5.60871 43.3191L5.60885 43.3262L5.60898 43.3332L5.60912 43.3401L5.60925 43.3468L5.60938 43.3535L5.60951 43.3601L5.60964 43.3666L5.60977 43.373L5.60989 43.3792L5.61001 43.3854L5.61013 43.3914L5.61025 43.3974L5.61036 43.4032L5.61047 43.409L5.61058 43.4146L5.61069 43.4201L5.6108 43.4255L5.6109 43.4308L5.611 43.436L5.6111 43.4411L5.6112 43.4461L5.6113 43.4509L5.61139 43.4557L5.61148 43.4603L5.61157 43.4649L5.61166 43.4693L5.61174 43.4736L5.61182 43.4778L5.6119 43.4818L5.61198 43.4858L5.61206 43.4896L5.61213 43.4934L5.6122 43.497L5.61227 43.5005L5.61234 43.5039L5.6124 43.5071L5.61246 43.5103L5.61252 43.5133L5.61258 43.5162L5.61263 43.519L5.61269 43.5217L5.61274 43.5242L5.61278 43.5267L5.61283 43.529L5.61287 43.5312L5.61291 43.5333L5.61295 43.5352L5.61299 43.537L5.61302 43.5387L5.61305 43.5403L5.61308 43.5418L5.61311 43.5431L5.61313 43.5443L5.61315 43.5454L5.61317 43.5463L5.61319 43.5472L5.6132 43.5479L5.61321 43.5485L5.61322 43.5489L5.61323 43.5492L5.61323 43.5494L5.11333 43.5593L5.61323 43.5495L5.61323 43.5496L5.61323 43.5496L5.61324 43.5498L5.61324 43.5499L5.61324 43.5501L5.61325 43.5503L5.61325 43.5506L5.61326 43.5509L5.61326 43.5512L5.61327 43.5516L5.61328 43.5519L5.61329 43.5524L5.6133 43.5528L5.61331 43.5533L5.61332 43.5538L5.61333 43.5544L5.61334 43.555L5.61335 43.5556L5.61336 43.5563L5.61338 43.557L5.61339 43.5577L5.61341 43.5584L5.61342 43.5592L5.61344 43.56L5.61345 43.5609L5.61347 43.5618L5.61349 43.5627L5.61351 43.5636L5.61353 43.5646L5.61355 43.5656L5.61357 43.5666L5.61359 43.5677L5.61361 43.5688L5.61363 43.57L5.61366 43.5711L5.61368 43.5723L5.6137 43.5735L5.61373 43.5748L5.61375 43.5761L5.61378 43.5774L5.61381 43.5788L5.61383 43.5801L5.61386 43.5815L5.61389 43.583L5.61392 43.5845L5.61395 43.586L5.61398 43.5875L5.61401 43.589L5.61404 43.5906L5.61407 43.5923L5.6141 43.5939L5.61414 43.5956L5.61417 43.5973L5.6142 43.599L5.61424 43.6008L5.61427 43.6026L5.61431 43.6044L5.61435 43.6063L5.61438 43.6081L5.61442 43.61L5.61446 43.612L5.6145 43.6139L5.61454 43.6159L5.61458 43.618L5.61462 43.62L5.61466 43.6221L5.6147 43.6242L5.61474 43.6263L5.61478 43.6285L5.61482 43.6307L5.61487 43.6329L5.61491 43.6351L5.61496 43.6374L5.615 43.6397L5.61505 43.642L5.61509 43.6444L5.61514 43.6467L5.61519 43.6492L5.61524 43.6516L5.61528 43.654L5.61533 43.6565L5.61538 43.659L5.61543 43.6616L5.61548 43.6641L5.61553 43.6667L5.61558 43.6693L5.61564 43.672L5.61569 43.6746L5.61574 43.6773L5.61579 43.68L5.61585 43.6828L5.6159 43.6856L5.61596 43.6884L5.61601 43.6912L5.61607 43.694L5.61612 43.6969L5.61618 43.6998L5.61624 43.7027L5.6163 43.7056L5.61635 43.7086L5.61641 43.7116L5.61647 43.7146L5.61653 43.7176L5.61659 43.7207L5.61665 43.7238L5.61671 43.7269L5.61678 43.73L5.61684 43.7332L5.6169 43.7364L5.61696 43.7396L5.61703 43.7428L5.61709 43.7461L5.61715 43.7493L5.61722 43.7526L5.61728 43.756L5.61735 43.7593L5.61742 43.7627L5.61748 43.7661L5.61755 43.7695L5.61762 43.7729L5.61768 43.7764L5.61775 43.7798L5.61782 43.7833L5.61789 43.7869L5.61796 43.7904L5.61803 43.794L5.6181 43.7976L5.61817 43.8012L5.61824 43.8048L5.61831 43.8085L5.61839 43.8121L5.61846 43.8158L5.61853 43.8195L5.61861 43.8233L5.61868 43.827L5.61875 43.8308L5.61883 43.8346L5.6189 43.8384L5.61898 43.8423L5.61905 43.8461L5.61913 43.85L5.61921 43.8539L5.61928 43.8579L5.61936 43.8618L5.61944 43.8658L5.61952 43.8697L5.6196 43.8737L5.61968 43.8778L5.61975 43.8818L5.61983 43.8859L5.61991 43.8899L5.62 43.894L5.62008 43.8982L5.62016 43.9023L5.62024 43.9065L5.62032 43.9106L5.6204 43.9148L5.62049 43.919L5.62057 43.9233L5.62065 43.9275L5.62074 43.9318L5.62082 43.9361L5.6209 43.9404L5.62099 43.9447L5.62107 43.949L5.62116 43.9534L5.62125 43.9578L5.62133 43.9622L5.62142 43.9666L5.62151 43.971L5.62159 43.9754L5.62168 43.9799L5.62177 43.9844L5.62186 43.9889L5.62195 43.9934L5.62203 43.9979L5.62212 44.0025L5.62221 44.007L5.6223 44.0116L5.62239 44.0162L5.62248 44.0208L5.62257 44.0254L5.62267 44.0301L5.62276 44.0347L5.62285 44.0394L5.62294 44.0441L5.62303 44.0488L5.62313 44.0535L5.62322 44.0583L5.62331 44.063L5.62341 44.0678L5.6235 44.0726L5.62359 44.0774L5.62369 44.0822L5.62378 44.087L5.62388 44.0919L5.62397 44.0967L5.62407 44.1016L5.62417 44.1065L5.62426 44.1114L5.62436 44.1163L5.62445 44.1212L5.62455 44.1262L5.62465 44.1311L5.62475 44.1361L5.62484 44.1411L5.62494 44.1461L5.62504 44.1511L5.62514 44.1561L5.62524 44.1612L5.62534 44.1662L5.62544 44.1713L5.62554 44.1764L5.62564 44.1814L5.62574 44.1866L5.62584 44.1917L5.62594 44.1968L5.62604 44.2019L5.62614 44.2071L5.62624 44.2123L5.62634 44.2174L5.62645 44.2226L5.62655 44.2278L5.62665 44.233L5.62675 44.2383L5.62686 44.2435L5.62696 44.2488L5.62706 44.254L5.62717 44.2593L5.62727 44.2646L5.62737 44.2699L5.62748 44.2752L5.62758 44.2805L5.62769 44.2858L5.62779 44.2912L5.6279 44.2965L5.628 44.3019L5.62811 44.3072L5.62821 44.3126L5.62832 44.318L5.62842 44.3234L5.62853 44.3288L5.62864 44.3343L5.62874 44.3397L5.62885 44.3451L5.62896 44.3506L5.62906 44.356L5.62917 44.3615L5.62928 44.367L5.62939 44.3725L5.62949 44.378L5.6296 44.3835L5.62971 44.389L5.62982 44.3945L5.62993 44.4L5.63004 44.4056L5.63015 44.4111L5.63026 44.4167L5.63036 44.4223L5.63047 44.4278L5.63058 44.4334L5.63069 44.439L5.6308 44.4446L5.63091 44.4502L5.63102 44.4558L5.63113 44.4615L5.63124 44.4671L5.63135 44.4727L5.63147 44.4784L5.63158 44.484L5.63169 44.4897L5.6318 44.4954L5.63191 44.501L5.63202 44.5067L5.63213 44.5124L5.63225 44.5181L5.63236 44.5238L5.63247 44.5295L5.63258 44.5352L5.63269 44.5409L5.63281 44.5467L5.63292 44.5524L5.63303 44.5581L5.63314 44.5639L5.63326 44.5696L5.63337 44.5754L5.63348 44.5811L5.6336 44.5869L5.63371 44.5927L5.63382 44.5984L5.63394 44.6042L5.63405 44.61L5.63416 44.6158L5.63428 44.6216L5.63439 44.6274L5.63451 44.6332L5.63462 44.639L5.63473 44.6448L5.63485 44.6506L5.63496 44.6565L5.63508 44.6623L5.63519 44.6681L5.63531 44.674L5.63542 44.6798L5.63553 44.6856L5.63565 44.6915L5.63576 44.6973L5.63588 44.7032L5.63599 44.709L5.63611 44.7149L5.63622 44.7208L5.63634 44.7266L5.63645 44.7325L5.63657 44.7384L5.63668 44.7442L5.6368 44.7501L5.63692 44.756L5.63703 44.7619L5.63715 44.7677L5.63726 44.7736L5.63738 44.7795L5.63749 44.7854L5.63761 44.7913L5.63772 44.7972L5.63784 44.8031L5.63796 44.809L5.63807 44.8149L5.63819 44.8208L5.6383 44.8267L5.63842 44.8326L5.63853 44.8385L5.63865 44.8444L5.63877 44.8503L5.63888 44.8562L5.639 44.8621L5.63911 44.868L5.63923 44.8739L5.63935 44.8798L5.63946 44.8857L5.63958 44.8916L5.63969 44.8975L5.63981 44.9034L5.63993 44.9093L5.64004 44.9152L5.64016 44.9212L5.64027 44.9271L5.64039 44.933L5.64051 44.9389L5.64062 44.9448L5.64074 44.9507L5.64085 44.9566L5.64097 44.9625L5.64108 44.9684L5.6412 44.9743L5.64132 44.9802L5.64143 44.9861L5.64155 44.992L5.64166 44.9978L5.64178 45.0037L5.64189 45.0096L5.64201 45.0155L5.64213 45.0214L5.64224 45.0273L5.64236 45.0332L5.64247 45.039L5.64259 45.0449L5.6427 45.0508L5.64282 45.0566L5.64293 45.0625L5.64305 45.0684L5.64316 45.0742L5.64328 45.0801L5.64339 45.086L5.64351 45.0918L5.64362 45.0977L5.64374 45.1035L5.64385 45.1093L5.64397 45.1152L5.64408 45.121L5.6442 45.1268L5.64431 45.1327L5.64442 45.1385L5.64454 45.1443L5.64465 45.1501L5.64477 45.1559L5.64488 45.1617L5.64499 45.1675L5.64511 45.1733L5.64522 45.1791L5.64534 45.1849L5.64545 45.1907L5.64556 45.1964L5.64568 45.2022L5.64579 45.208L5.6459 45.2137L5.64601 45.2195L5.64613 45.2252L5.64624 45.231L5.64635 45.2367L5.64646 45.2424L5.64658 45.2482L5.64669 45.2539L5.6468 45.2596L5.64691 45.2653L5.64703 45.271L5.64714 45.2767L5.64725 45.2824L5.64736 45.288L5.64747 45.2937L5.64758 45.2994L5.64769 45.305L5.6478 45.3107L5.64792 45.3163L5.64803 45.322L5.64814 45.3276L5.64825 45.3332L5.64836 45.3388L5.64847 45.3444L5.64858 45.35L5.64869 45.3556L5.6488 45.3612L5.64891 45.3668L5.64901 45.3723L5.64912 45.3779L5.64923 45.3834L5.64934 45.389L5.64945 45.3945L5.64956 45.4L5.64967 45.4055L5.64977 45.411L5.64988 45.4165L5.64999 45.422L5.6501 45.4275L5.6502 45.433L5.65031 45.4384L5.65042 45.4439L5.65053 45.4493L5.65063 45.4547L5.65074 45.4602L5.65084 45.4656L5.65095 45.471L5.65106 45.4763L5.65116 45.4817L5.65127 45.4871L5.65137 45.4924L5.65148 45.4978L5.65158 45.5031L5.65169 45.5085L5.65179 45.5138L5.6519 45.5191L5.652 45.5244L5.6521 45.5296L5.65221 45.5349L5.65231 45.5402L5.65241 45.5454L5.65252 45.5506L5.65262 45.5559L5.65272 45.5611L5.65282 45.5663L5.65292 45.5715L5.65303 45.5766L5.65313 45.5818L5.65323 45.587L5.65333 45.5921L5.65343 45.5972L5.65353 45.6023L5.65363 45.6074L5.65373 45.6125L5.65383 45.6176L5.65393 45.6226L5.65403 45.6277L5.65413 45.6327L5.65423 45.6378L5.65432 45.6428L5.65442 45.6478L5.65452 45.6527L5.65462 45.6577L5.65471 45.6627L5.65481 45.6676L5.65491 45.6725L5.655 45.6774L5.6551 45.6823L5.6552 45.6872L5.65529 45.6921L5.65539 45.6969L5.65548 45.7018L5.65558 45.7066L5.65567 45.7114L5.65576 45.7162L5.65586 45.721L5.65595 45.7257L5.65605 45.7305L5.65614 45.7352L5.65623 45.7399L5.65632 45.7446L5.65642 45.7493L5.65651 45.754L5.6566 45.7586L5.65669 45.7633L5.65678 45.7679L5.65687 45.7725L5.65696 45.7771L5.65705 45.7817L5.65714 45.7862L5.65723 45.7908L5.65732 45.7953L5.65741 45.7998L5.65749 45.8043L5.65758 45.8088L5.65767 45.8132L5.65776 45.8177C5.66494 46.1838 5.49435 46.4645 5.28174 46.6666C5.08209 46.8564 4.82516 46.9976 4.58966 47.1115C4.45093 47.1786 4.28711 47.2507 4.12999 47.3198C4.03069 47.3635 3.93407 47.406 3.84814 47.4454C3.60411 47.5571 3.38628 47.6684 3.20482 47.7946L2.83866 48.0492C3.17637 47.9924 3.54102 47.9324 3.92467 47.8712C5.82086 47.5688 8.19799 47.2356 10.0792 47.1221C10.5381 47.0944 10.9544 47.0413 11.3567 46.9839C11.4477 46.9709 11.5389 46.9576 11.6301 46.9443C11.936 46.8996 12.2422 46.8548 12.5443 46.8233C13.3486 46.7392 14.1688 46.7428 15.1689 47.0462C17.0397 47.6139 18.0086 48.6907 19.0882 49.8905C19.3753 50.2096 19.6701 50.5373 19.9919 50.8664C20.9103 51.8061 21.9009 53.1393 22.6528 54.2209C23.031 54.7649 23.3531 55.2514 23.5807 55.602C23.641 55.695 23.6948 55.7784 23.7412 55.851C23.8068 55.8329 23.8802 55.8131 23.9607 55.7917C24.3232 55.6957 24.83 55.5694 25.4082 55.4483C26.5513 55.2089 28.0232 54.9789 29.2116 55.0682C30.2795 55.1484 31.5656 55.5202 32.5581 55.8576C33.0601 56.0283 33.498 56.194 33.8105 56.3172Z" fill="black" stroke="black"/>
</svg>
