<svg width="72" height="93" viewBox="0 0 72 93" fill="none" xmlns="http://www.w3.org/2000/svg">
<path d="M45.1152 70.1778L44.8109 69.781L44.8228 69.772L44.8351 69.7636L71.1106 51.9983L70.4956 1.67658C70.3643 1.66467 70.2067 1.65056 70.0265 1.63473C69.4538 1.58445 68.6532 1.51689 67.742 1.44785C65.9164 1.30953 63.6574 1.16605 61.8958 1.14218C61.5187 1.13706 61.1686 1.13095 60.8373 1.12515C59.0822 1.09448 57.8516 1.07297 55.9015 1.2587C55.5044 1.29652 55.0992 1.33701 54.6886 1.37804C52.9669 1.55008 51.1506 1.73157 49.4448 1.76505C47.9645 1.79411 45.2751 1.73013 42.0714 1.65392C41.1542 1.6321 40.1948 1.60928 39.2096 1.58736C37.6897 1.55352 36.3043 1.50837 35.0004 1.46587C29.8222 1.29708 25.9306 1.17023 20.0075 1.96154C17.6482 2.27673 14.6532 2.89895 12.2385 3.44518C11.0331 3.71783 9.97616 3.97066 9.22064 4.15532C8.85853 4.24382 8.56576 4.31663 8.35921 4.36842L1.47033 92.1154C1.65703 92.12 1.88771 92.1253 2.15274 92.1307C2.88975 92.1457 3.89147 92.1614 4.95129 92.1641C6.01188 92.1669 7.12686 92.1567 8.09154 92.1202C9.06982 92.0832 9.85299 92.0202 10.2737 91.9274C12.1354 91.5169 14.203 90.9477 16.5752 89.9392C19.0975 88.867 20.4207 88.0171 22.7241 86.5377L22.8603 86.4502C24.6493 85.3014 25.8134 84.3677 27.1466 83.2984C27.8558 82.7296 28.6128 82.1224 29.5372 81.4241C32.5288 79.1639 36.347 76.2533 39.4179 73.9074C40.9532 72.7345 42.3015 71.7029 43.2659 70.9645C43.7482 70.5953 44.1344 70.2994 44.4001 70.0959L44.7052 69.8621L44.7841 69.8016L44.8042 69.7862L44.8092 69.7823L44.8105 69.7814L44.8108 69.7811C44.8109 69.7811 44.8109 69.781 45.1152 70.1778Z" fill="black" stroke="black"/>
</svg>
