<svg width="13" height="34" viewBox="0 0 13 34" fill="none" xmlns="http://www.w3.org/2000/svg">
<path d="M4.60748 20.8524C5.10675 20.8254 5.10675 20.8254 5.10676 20.8255L5.10678 20.8259L5.10686 20.8274L5.10718 20.8333L5.10845 20.8569L5.11342 20.9486L5.13228 21.2977L5.19969 22.5492C5.25554 23.5881 5.33016 24.9813 5.40526 26.3982C5.55497 29.2231 5.70783 32.1651 5.71547 32.5541C5.71928 32.7485 5.72192 32.8748 5.72886 32.9707C5.7357 33.0652 5.74489 33.096 5.74788 33.1044C5.74801 33.1048 5.74811 33.1051 5.74821 33.1056C5.74991 33.112 5.75423 33.1284 5.9264 33.2954C5.94688 33.2975 5.98461 33.2993 6.04618 33.2947C6.20605 33.2829 6.42199 33.237 6.70035 33.1659C6.79934 33.1406 6.90563 33.1121 7.01731 33.0822C7.49253 32.9549 8.06531 32.8016 8.58849 32.7551C9.34625 32.6879 10.309 32.6694 11.0729 32.6671C11.3593 32.6663 11.6198 32.6678 11.8339 32.6699L11.5332 30.5958C11.3869 30.5687 11.2066 30.5319 11.0099 30.4846C10.528 30.3686 9.88538 30.175 9.41836 29.8687C8.82966 29.4827 8.54706 29.1582 8.14413 28.6491C7.74529 28.1452 7.42686 27.4287 7.21462 26.8752C7.10585 26.5915 7.01993 26.337 6.96113 26.1532C6.93167 26.0612 6.90889 25.9865 6.89333 25.9342C6.88555 25.9081 6.87956 25.8876 6.87543 25.8733L6.87065 25.8566L6.86932 25.8519L6.86892 25.8505L6.86879 25.8501L6.86874 25.8499C6.86872 25.8498 6.86871 25.8498 7.35016 25.7149L6.86871 25.8498L6.86338 25.8308L6.85957 25.8114L5.60042 19.4127L3.11084 8.12191L3.1108 8.12192L3.10958 8.11602L3.59911 8.01425L3.10956 8.11595L3.10952 8.11574L3.10934 8.1149L3.10866 8.11161L3.10596 8.09864L3.09547 8.04807L3.05565 7.85595C3.02135 7.69029 2.97234 7.45324 2.91352 7.16761C2.79588 6.5964 2.63891 5.83067 2.48169 5.05297C2.32452 4.27559 2.16683 3.48492 2.04785 2.86429C1.99055 2.56537 1.94185 2.30397 1.90644 2.10175C1.81677 2.12559 1.69253 2.14726 1.55532 2.12892C1.60868 2.40946 1.66852 2.72253 1.73284 3.05653C1.98106 4.3454 2.29532 5.94225 2.56106 7.18318C2.85658 8.56309 3.16813 9.67632 3.4716 10.7607C3.53778 10.9972 3.60359 11.2323 3.66876 11.4685C4.03256 12.7873 4.37181 14.1244 4.62771 15.8731C4.76941 16.8413 4.88905 18.0806 4.97299 19.0711C5.01508 19.5677 5.04841 20.0045 5.07122 20.3172C5.08263 20.4736 5.09141 20.599 5.09735 20.6854L5.1041 20.7849L5.10583 20.8108L5.10627 20.8175L5.10638 20.8192L5.10641 20.8197L5.10642 20.8198L4.60748 20.8524ZM4.60748 20.8524L5.10675 20.8254L5.10645 20.8199L4.60748 20.8524Z" fill="black" stroke="black"/>
</svg>
