<svg width="654" height="471" viewBox="0 0 654 471" fill="none" xmlns="http://www.w3.org/2000/svg">
<path d="M410.28 232.48L374.769 221.147H374.764C367.644 218.725 363.754 211.069 365.988 203.892L376.696 167.799C377.556 164.887 379.55 162.445 382.233 161.023C384.91 159.606 388.05 159.325 390.941 160.247C393.832 161.168 396.227 163.215 397.587 165.924C398.951 168.637 399.16 171.783 398.175 174.648L394.368 187.491C414.675 170.147 426.513 144.887 426.852 118.179C427.748 93.9607 418.857 70.4034 402.18 52.8154C385.508 35.2221 362.461 25.0861 338.227 24.6847C331.992 24.4035 327.081 19.2681 327.081 13.0233C327.081 6.78368 331.992 1.64834 338.227 1.367L338.336 1.38784V1.367C368.696 1.90346 397.56 14.6326 418.44 36.679C439.315 58.731 450.445 88.247 449.331 118.591C448.898 152.894 433.32 185.242 406.773 206.971L416.883 210.2C430.94 214.679 424.648 237.102 410.279 232.482L410.28 232.48Z" fill="black"/>
<path d="M315 234.667V234.687C284.64 234.146 255.781 221.417 234.901 199.37C214.027 177.323 202.896 147.807 204.005 117.463C204.422 81.9328 221.099 48.5515 249.26 26.8848L236.447 22.7963L236.453 22.7911C230.536 20.7859 227.26 14.4629 229.036 8.47372C230.812 2.48412 237.005 -1.03148 243.057 0.510124L278.568 11.8435H278.573C285.693 14.2653 289.584 21.9216 287.349 29.0981L276.641 65.1914C275.792 68.1185 273.802 70.5769 271.115 72.0092C268.433 73.4414 265.282 73.728 262.381 72.8008C259.479 71.8738 257.078 69.8165 255.719 67.0926C254.36 64.3738 254.157 61.2123 255.162 58.3426L257.771 49.5353C238.178 66.8846 226.812 91.7019 226.484 117.874C225.589 142.093 234.479 165.65 251.151 183.243C267.823 200.831 290.875 210.973 315.11 211.369C321.365 211.645 326.282 216.811 326.25 223.072C326.224 229.327 321.256 234.447 315 234.665L315 234.667Z" fill="black"/>
<path d="M556.547 277.173H96.7999C62.2426 277.21 30.3305 295.668 13.0652 325.6C-4.20012 355.532 -4.20012 392.397 13.0652 422.329C30.3305 452.261 62.2426 470.715 96.7999 470.751H556.547C591.104 470.714 623.016 452.261 640.281 422.329C657.547 392.397 657.547 355.532 640.281 325.6C623.016 295.668 591.104 277.209 556.547 277.173V277.173ZM133.84 403.537L122.501 396.173V409.689C122.501 416.131 117.277 421.355 110.835 421.355C104.392 421.355 99.168 416.131 99.168 409.689V396.173L87.8295 403.532V403.537C82.4284 406.97 75.2669 405.412 71.7828 400.043C68.2984 394.673 69.7932 387.496 75.1265 383.964L89.4079 374.688L75.1265 365.412C69.7828 361.881 68.288 354.704 71.7724 349.329C75.262 343.954 82.4287 342.397 87.8298 345.84L99.1683 353.199V339.688C99.1683 333.246 104.392 328.022 110.835 328.022C117.278 328.022 122.502 333.246 122.502 339.688V353.204L133.84 345.845V345.84C139.241 342.397 146.408 343.954 149.897 349.329C153.382 354.704 151.887 361.881 146.543 365.412L132.262 374.688L146.543 383.964C151.877 387.495 153.371 394.672 149.887 400.043C146.403 405.412 139.241 406.97 133.84 403.537L133.84 403.537ZM251.543 383.964C256.876 387.495 258.371 394.672 254.886 400.043C251.402 405.412 244.24 406.97 238.84 403.537L227.501 396.173V409.689C227.501 416.132 222.277 421.356 215.834 421.356C209.392 421.356 204.168 416.132 204.168 409.689V396.173L192.829 403.532V403.537C187.428 406.97 180.267 405.412 176.783 400.043C173.298 394.673 174.793 387.496 180.126 383.964L194.408 374.688L180.126 365.412C174.783 361.881 173.288 354.704 176.772 349.329C180.262 343.954 187.428 342.397 192.829 345.84L204.168 353.199V339.688C204.168 333.246 209.392 328.022 215.835 328.022C222.277 328.022 227.501 333.246 227.501 339.688V353.204L238.84 345.845V345.84C244.241 342.397 251.408 343.954 254.897 349.329C258.382 354.704 256.887 361.882 251.543 365.412L237.262 374.688L251.543 383.964ZM343.84 403.537L332.501 396.173V409.689C332.501 416.131 327.277 421.355 320.835 421.355C314.392 421.355 309.168 416.131 309.168 409.689V396.173L297.829 403.532V403.537C292.428 406.97 285.267 405.412 281.783 400.043C278.298 394.673 279.793 387.496 285.127 383.964L299.408 374.688L285.127 365.412C279.783 361.881 278.288 354.704 281.772 349.329C285.262 343.954 292.429 342.397 297.83 345.84L309.168 353.199V339.688C309.168 333.246 314.392 328.022 320.835 328.022C327.278 328.022 332.502 333.246 332.502 339.688V353.204L343.84 345.845V345.84C349.241 342.397 356.408 343.954 359.897 349.329C363.382 354.704 361.887 361.881 356.543 365.412L342.262 374.688L356.543 383.964C361.877 387.495 363.371 394.672 359.887 400.043C356.403 405.412 349.241 406.97 343.84 403.537L343.84 403.537ZM448.84 403.537L437.501 396.173V409.689C437.501 416.131 432.277 421.355 425.835 421.355C419.392 421.355 414.168 416.131 414.168 409.689V396.173L402.829 403.532V403.537C397.428 406.97 390.267 405.412 386.783 400.043C383.298 394.673 384.793 387.496 390.127 383.964L404.408 374.688L390.127 365.412C384.783 361.881 383.288 354.704 386.772 349.329C390.262 343.954 397.429 342.397 402.83 345.84L414.168 353.199V339.688C414.168 333.246 419.392 328.022 425.835 328.022C432.278 328.022 437.502 333.246 437.502 339.688V353.204L448.84 345.845V345.84C454.241 342.397 461.408 343.954 464.897 349.329C468.382 354.704 466.887 361.881 461.543 365.412L447.262 374.688L461.543 383.964C466.877 387.495 468.371 394.672 464.887 400.043C461.403 405.412 454.241 406.97 448.84 403.537L448.84 403.537ZM571.668 421.355H501.668C495.225 421.355 490.001 416.131 490.001 409.688C490.001 403.245 495.225 398.021 501.668 398.021H571.668C578.111 398.021 583.335 403.245 583.335 409.688C583.335 416.131 578.111 421.355 571.668 421.355Z" fill="black"/>
</svg>
