<svg width="332" height="384" viewBox="0 0 332 384" fill="none" xmlns="http://www.w3.org/2000/svg">
<g filter="url(#filter0_i_103_126)">
<path fill-rule="evenodd" clip-rule="evenodd" d="M149.39 79.4698C160.56 70.8537 171.191 65.7823 182.096 63.7148C190.602 62.0867 200.735 63.2764 208.867 66.9083C217.06 70.4776 228.945 80.3088 249.085 100.034C250.378 101.301 251.624 102.515 252.826 103.68C275.693 80.6853 278.847 77.4164 278.885 74.1115C278.891 73.5577 278.81 73.0028 278.72 72.3539C278.338 69.6838 276.049 66.6322 273.543 65.5424C254.852 57.3141 248.258 52.5732 227.66 32.4111C210.114 15.2461 199.76 6.69082 192.622 3.58476C185.538 0.424218 176.71 -0.611137 169.299 0.805665C154.913 3.53027 141.072 12.249 125.324 28.5967C121.128 32.9016 117.314 37.3154 116.823 38.3508C115.733 40.6395 115.679 44.2359 116.714 46.1977C117.067 46.8591 130.837 60.8663 149.39 79.4698Z" fill="black"/>
<path fill-rule="evenodd" clip-rule="evenodd" d="M102.366 129.222C101.378 129.72 97.9787 132.798 93.5408 137.064L77.6979 121.124C67.8893 111.316 59.6065 102.543 59.2795 101.725C58.5166 99.5454 58.5711 97.3113 59.552 94.9136C60.6963 92.2435 90.8305 62.0003 93.8821 60.4745C96.4432 59.2212 98.9498 59.1122 101.402 60.1476C102.241 60.501 115.473 73.4255 134.679 92.5333C133.666 93.5443 132.646 94.5832 131.619 95.6504C126.803 100.597 122.425 105.669 121.862 106.859C120.611 109.489 120.548 113.622 121.737 115.876C122.237 116.816 146.256 141.174 175.09 169.979C177.092 171.98 179.019 173.906 180.874 175.76C177.166 179.44 173.159 183.336 169.645 186.676L167.264 184.267C135.841 152.573 112.434 129.351 111.216 128.834C108.33 127.605 105.38 127.734 102.366 129.222ZM61.9656 170.102C62.4548 168.95 67.4469 163.479 73.7777 156.892C71.8422 158.191 69.7481 159.553 67.4533 161.013C48.4356 173.055 45.166 175.235 40.2073 179.05C23.7506 191.637 7.076 214.197 1.84475 230.981C-2.07869 243.459 0.318971 251.906 8.43831 254.249C11.1084 255.012 12.3073 255.066 16.2852 254.576C30.5076 252.832 48.7625 242.26 65.4916 226.131C72.2831 219.596 76.3961 214.601 84.3916 202.301L83.3202 201.214C71.7772 189.571 62.0297 179.157 61.6449 178.187C60.7471 175.6 60.8113 172.948 61.9656 170.102Z" fill="black"/>
</g>
<g filter="url(#filter1_i_103_126)">
<path d="M184.212 71.6221C169.826 74.3467 155.985 83.0654 140.236 99.4131C136.041 103.718 132.226 108.132 131.736 109.167C130.646 111.456 130.591 115.052 131.627 117.014C132.063 117.831 152.988 139.029 178.109 164.095C218.651 204.583 223.991 209.705 225.844 210.032C228.95 210.632 231.402 209.923 234.235 207.635C235.652 206.49 249.384 192.922 264.697 177.555C294.449 147.639 294.286 147.857 293.632 143.17C293.251 140.5 290.962 137.449 288.455 136.359C269.764 128.13 263.171 123.39 242.573 103.228C225.026 86.0625 214.673 77.5072 207.534 74.4012C200.45 71.2406 191.623 70.2053 184.212 71.6221Z" fill="black"/>
<path d="M102.765 136.291C99.7135 137.817 69.5794 168.06 68.435 170.73C67.4542 173.128 67.3997 175.362 68.1626 177.542C68.4895 178.359 76.7723 187.132 86.5809 196.941L104.4 214.869L99.4956 219.501C93.2835 225.386 86.9624 230.072 76.3364 236.829C57.3186 248.872 54.0491 251.052 49.0903 254.866C32.6337 267.454 15.9591 290.014 10.7278 306.797C6.80437 319.276 9.20203 327.722 17.3214 330.065C19.9915 330.828 21.1903 330.883 25.1682 330.392C39.3907 328.648 57.6456 318.077 74.3747 301.947C83.0389 293.61 87.3438 287.779 100.912 266.091C108.541 253.831 113.936 246.529 120.094 240.099L124.78 235.194L142.653 253.013C152.462 262.822 161.235 271.105 162.053 271.432C164.232 272.195 166.466 272.14 168.81 271.159C170.88 270.287 197.527 244.349 201.723 239.118C204.012 236.284 204.72 233.832 204.121 230.672C203.794 228.873 198.617 223.479 157.911 182.664C131.21 155.963 111.32 136.4 110.285 135.964C107.833 134.929 105.326 135.038 102.765 136.291Z" fill="black"/>
</g>
<path fill-rule="evenodd" clip-rule="evenodd" d="M118.998 278C104.639 278 92.9982 289.641 92.9982 304V358C92.9982 372.359 104.639 384 118.998 384H305.998C320.358 384 331.998 372.359 331.998 358V304C331.998 289.641 320.358 278 305.998 278H118.998ZM130.163 335.224H158.675V367H172.115V296.92H158.675V324.952H130.163V296.92H116.723V367H130.163V335.224ZM218.037 295.96C207.413 295.96 198.901 299.224 192.501 305.752C186.165 312.216 182.997 320.952 182.997 331.96C182.997 342.968 186.165 351.736 192.501 358.264C198.901 364.728 207.413 367.96 218.037 367.96C228.661 367.96 237.141 364.728 243.477 358.264C249.877 351.736 253.077 342.968 253.077 331.96C253.077 320.952 249.877 312.216 243.477 305.752C237.141 299.224 228.661 295.96 218.037 295.96ZM218.037 356.92C211.509 356.92 206.325 354.744 202.485 350.392C198.645 345.976 196.725 339.832 196.725 331.96C196.725 324.088 198.645 317.976 202.485 313.624C206.325 309.208 211.509 307 218.037 307C224.565 307 229.749 309.208 233.589 313.624C237.429 317.976 239.349 324.088 239.349 331.96C239.349 339.832 237.429 345.976 233.589 350.392C229.749 354.744 224.565 356.92 218.037 356.92ZM280.71 325.144H277.158V307C279.142 306.616 281.35 306.424 283.782 306.424C288.71 306.424 292.23 307.16 294.342 308.632C296.518 310.104 297.606 312.376 297.606 315.448C297.606 318.648 296.262 321.08 293.574 322.744C290.95 324.344 286.662 325.144 280.71 325.144ZM277.158 356.92V335.128H281.382C287.974 335.128 292.678 335.992 295.494 337.72C298.31 339.384 299.718 342.008 299.718 345.592C299.718 349.624 298.47 352.632 295.974 354.616C293.542 356.536 289.67 357.496 284.358 357.496C281.798 357.496 279.398 357.304 277.158 356.92ZM305.67 362.68C310.278 359.16 312.582 353.88 312.582 346.84C312.582 342.296 311.046 338.456 307.974 335.32C304.966 332.12 300.838 330.168 295.59 329.464V329.272C299.942 328.44 303.43 326.616 306.054 323.8C308.678 320.92 309.99 317.496 309.99 313.528C309.99 301.816 301.03 295.96 283.11 295.96C276.326 295.96 269.926 296.44 263.91 297.4V366.52C270.246 367.48 276.966 367.96 284.07 367.96C293.862 367.96 301.062 366.2 305.67 362.68Z" fill="black"/>
<defs>
<filter id="filter0_i_103_126" x="0" y="0.183594" width="278.885" height="258.71" filterUnits="userSpaceOnUse" color-interpolation-filters="sRGB">
<feFlood flood-opacity="0" result="BackgroundImageFix"/>
<feBlend mode="normal" in="SourceGraphic" in2="BackgroundImageFix" result="shape"/>
<feColorMatrix in="SourceAlpha" type="matrix" values="0 0 0 0 0 0 0 0 0 0 0 0 0 0 0 0 0 0 127 0" result="hardAlpha"/>
<feOffset dy="4"/>
<feGaussianBlur stdDeviation="2"/>
<feComposite in2="hardAlpha" operator="arithmetic" k2="-1" k3="1"/>
<feColorMatrix type="matrix" values="0 0 0 0 0 0 0 0 0 0 0 0 0 0 0 0 0 0 0.25 0"/>
<feBlend mode="normal" in2="shape" result="effect1_innerShadow_103_126"/>
</filter>
<filter id="filter1_i_103_126" x="8.88306" y="71" width="284.915" height="263.71" filterUnits="userSpaceOnUse" color-interpolation-filters="sRGB">
<feFlood flood-opacity="0" result="BackgroundImageFix"/>
<feBlend mode="normal" in="SourceGraphic" in2="BackgroundImageFix" result="shape"/>
<feColorMatrix in="SourceAlpha" type="matrix" values="0 0 0 0 0 0 0 0 0 0 0 0 0 0 0 0 0 0 127 0" result="hardAlpha"/>
<feOffset dy="4"/>
<feGaussianBlur stdDeviation="2"/>
<feComposite in2="hardAlpha" operator="arithmetic" k2="-1" k3="1"/>
<feColorMatrix type="matrix" values="0 0 0 0 0 0 0 0 0 0 0 0 0 0 0 0 0 0 0.25 0"/>
<feBlend mode="normal" in2="shape" result="effect1_innerShadow_103_126"/>
</filter>
</defs>
</svg>
