<svg width="332" height="384" viewBox="0 0 332 384" fill="none" xmlns="http://www.w3.org/2000/svg">
<g filter="url(#filter0_i_102_95)">
<path fill-rule="evenodd" clip-rule="evenodd" d="M149.392 79.4698C160.561 70.8537 171.193 65.7823 182.098 63.7148C190.604 62.0867 200.737 63.2764 208.868 66.9083C217.062 70.4776 228.946 80.3088 249.087 100.034C250.38 101.301 251.625 102.515 252.827 103.68C275.694 80.6853 278.849 77.4164 278.887 74.1115C278.893 73.5577 278.812 73.0028 278.721 72.3539C278.34 69.6838 276.051 66.6322 273.545 65.5424C254.854 57.3141 248.26 52.5732 227.662 32.4111C210.116 15.2461 199.762 6.69082 192.624 3.58476C185.54 0.424218 176.712 -0.611137 169.301 0.805665C154.915 3.53027 141.074 12.249 125.326 28.5967C121.13 32.9016 117.316 37.3154 116.825 38.3508C115.735 40.6395 115.681 44.2359 116.716 46.1977C117.069 46.8591 130.839 60.8663 149.392 79.4698Z" fill="black"/>
<path fill-rule="evenodd" clip-rule="evenodd" d="M102.368 129.222C101.38 129.72 97.9805 132.798 93.5427 137.064L77.6997 121.124C67.8911 111.316 59.6083 102.543 59.2813 101.725C58.5185 99.5454 58.5729 97.3113 59.5538 94.9136C60.6981 92.2435 90.8323 62.0003 93.8839 60.4745C96.445 59.2212 98.9517 59.1122 101.404 60.1476C102.243 60.501 115.475 73.4255 134.681 92.5333C133.668 93.5443 132.648 94.5832 131.621 95.6504C126.805 100.597 122.426 105.669 121.864 106.859C120.613 109.489 120.55 113.622 121.738 115.876C122.239 116.816 146.257 141.174 175.092 169.979C177.094 171.98 179.021 173.906 180.876 175.76C177.167 179.44 173.161 183.336 169.647 186.676L167.266 184.267C135.843 152.573 112.436 129.351 111.218 128.834C108.332 127.605 105.382 127.734 102.368 129.222ZM61.9674 170.102C62.4566 168.95 67.4487 163.479 73.7795 156.892C71.844 158.191 69.75 159.553 67.4552 161.013C48.4374 173.055 45.1679 175.235 40.2091 179.05C23.7524 191.637 7.07783 214.197 1.84658 230.981C-2.07685 243.459 0.320802 251.906 8.44014 254.249C11.1103 255.012 12.3091 255.066 16.287 254.576C30.5095 252.832 48.7644 242.26 65.4935 226.131C72.2849 219.596 76.3979 214.601 84.3934 202.301L83.322 201.214C71.779 189.571 62.0315 179.157 61.6468 178.187C60.749 175.6 60.8131 172.948 61.9674 170.102Z" fill="black"/>
</g>
<g filter="url(#filter1_i_102_95)">
<path d="M184.213 71.6221C169.828 74.3467 155.987 83.0654 140.238 99.4131C136.042 103.718 132.228 108.132 131.738 109.167C130.648 111.456 130.593 115.052 131.629 117.014C132.064 117.831 152.989 139.029 178.11 164.095C218.653 204.583 223.993 209.705 225.846 210.032C228.952 210.632 231.404 209.923 234.237 207.635C235.654 206.49 249.386 192.922 264.698 177.555C294.451 147.639 294.288 147.857 293.634 143.17C293.252 140.5 290.964 137.449 288.457 136.359C269.766 128.13 263.173 123.39 242.575 103.228C225.028 86.0625 214.675 77.5072 207.536 74.4012C200.452 71.2406 191.624 70.2053 184.213 71.6221Z" fill="black"/>
<path d="M102.767 136.291C99.7154 137.817 69.5812 168.06 68.4369 170.73C67.456 173.128 67.4015 175.362 68.1644 177.542C68.4914 178.359 76.7742 187.132 86.5828 196.941L104.402 214.869L99.4974 219.501C93.2853 225.386 86.9642 230.072 76.3382 236.829C57.3205 248.872 54.0509 251.052 49.0921 254.866C32.6355 267.454 15.9609 290.014 10.7296 306.797C6.8062 319.276 9.20386 327.722 17.3232 330.065C19.9933 330.828 21.1921 330.883 25.1701 330.392C39.3925 328.648 57.6474 318.077 74.3765 301.947C83.0408 293.61 87.3457 287.779 100.914 266.091C108.543 253.831 113.938 246.529 120.095 240.099L124.782 235.194L142.655 253.013C152.464 262.822 161.237 271.105 162.054 271.432C164.234 272.195 166.468 272.14 168.811 271.159C170.882 270.287 197.529 244.349 201.725 239.118C204.013 236.284 204.722 233.832 204.122 230.672C203.795 228.873 198.619 223.479 157.913 182.664C131.212 155.963 111.322 136.4 110.287 135.964C107.835 134.929 105.328 135.038 102.767 136.291Z" fill="black"/>
</g>
<path fill-rule="evenodd" clip-rule="evenodd" d="M119 278C104.641 278 93 289.641 93 304V358C93 372.359 104.641 384 119 384H306C320.359 384 332 372.359 332 358V304C332 289.641 320.359 278 306 278H119ZM132.984 367V343.576C135.8 343.832 138.36 343.96 140.664 343.96C149.88 343.96 156.856 341.848 161.592 337.624C166.392 333.336 168.792 327.064 168.792 318.808C168.792 303.576 158.552 295.96 138.072 295.96C130.648 295.96 123.608 296.44 116.952 297.4V367H132.984ZM139.032 331.96C137.048 331.96 135.032 331.8 132.984 331.48V308.92C134.904 308.536 136.92 308.344 139.032 308.344C148.696 308.344 153.528 312.152 153.528 319.768C153.528 323.608 152.248 326.616 149.688 328.792C147.192 330.904 143.64 331.96 139.032 331.96ZM194.866 324.376V310.072H223.378V296.92H178.546V367H223.378V353.848H194.866V336.76H221.458V324.376H194.866ZM292.054 324.088H292.246V367H308.086V296.92H290.998L272.47 338.2H272.278L253.75 296.92H237.046V367H252.502V324.088H252.694L264.982 350.968H279.766L292.054 324.088Z" fill="black"/>
<defs>
<filter id="filter0_i_102_95" x="0.00183105" y="0.183594" width="278.885" height="258.71" filterUnits="userSpaceOnUse" color-interpolation-filters="sRGB">
<feFlood flood-opacity="0" result="BackgroundImageFix"/>
<feBlend mode="normal" in="SourceGraphic" in2="BackgroundImageFix" result="shape"/>
<feColorMatrix in="SourceAlpha" type="matrix" values="0 0 0 0 0 0 0 0 0 0 0 0 0 0 0 0 0 0 127 0" result="hardAlpha"/>
<feOffset dy="4"/>
<feGaussianBlur stdDeviation="2"/>
<feComposite in2="hardAlpha" operator="arithmetic" k2="-1" k3="1"/>
<feColorMatrix type="matrix" values="0 0 0 0 0 0 0 0 0 0 0 0 0 0 0 0 0 0 0.25 0"/>
<feBlend mode="normal" in2="shape" result="effect1_innerShadow_102_95"/>
</filter>
<filter id="filter1_i_102_95" x="8.88489" y="71" width="284.915" height="263.71" filterUnits="userSpaceOnUse" color-interpolation-filters="sRGB">
<feFlood flood-opacity="0" result="BackgroundImageFix"/>
<feBlend mode="normal" in="SourceGraphic" in2="BackgroundImageFix" result="shape"/>
<feColorMatrix in="SourceAlpha" type="matrix" values="0 0 0 0 0 0 0 0 0 0 0 0 0 0 0 0 0 0 127 0" result="hardAlpha"/>
<feOffset dy="4"/>
<feGaussianBlur stdDeviation="2"/>
<feComposite in2="hardAlpha" operator="arithmetic" k2="-1" k3="1"/>
<feColorMatrix type="matrix" values="0 0 0 0 0 0 0 0 0 0 0 0 0 0 0 0 0 0 0.25 0"/>
<feBlend mode="normal" in2="shape" result="effect1_innerShadow_102_95"/>
</filter>
</defs>
</svg>
