<svg width="332" height="384" viewBox="0 0 332 384" fill="none" xmlns="http://www.w3.org/2000/svg">
<g filter="url(#filter0_i_102_96)">
<path d="M169.299 0.621949C154.913 3.34656 141.072 12.0653 125.324 28.413C121.128 32.7178 117.314 37.1317 116.823 38.1671C115.733 40.4557 115.679 44.0522 116.714 46.0139C117.15 46.8313 138.075 68.0288 163.196 93.0952C203.738 133.583 209.079 138.705 210.931 139.032C214.037 139.632 216.489 138.923 219.323 136.634C220.74 135.49 234.472 121.922 249.784 106.555C279.537 76.6385 279.373 76.8565 278.72 72.1702C278.338 69.5001 276.049 66.4485 273.543 65.3587C254.852 57.1303 248.258 52.3895 227.66 32.2274C210.114 15.0624 199.76 6.5071 192.622 3.40105C185.538 0.240503 176.71 -0.794848 169.299 0.621949Z" fill="black"/>
<path d="M93.8821 60.2909C90.8305 61.8167 60.6963 92.0599 59.552 94.73C58.5711 97.1277 58.5166 99.3618 59.2795 101.542C59.6065 102.359 67.8893 111.132 77.6979 120.941L95.5168 138.869L90.6125 143.501C84.4004 149.386 78.0793 154.072 67.4533 160.829C48.4356 172.872 45.166 175.051 40.2073 178.866C23.7506 191.454 7.076 214.013 1.84475 230.797C-2.07869 243.276 0.318971 251.722 8.43831 254.065C11.1084 254.828 12.3073 254.883 16.2852 254.392C30.5076 252.648 48.7625 242.077 65.4916 225.947C74.1559 217.61 78.4608 211.779 92.0293 190.091C99.6582 177.831 105.053 170.529 111.211 164.099L115.897 159.194L133.77 177.013C143.579 186.822 152.352 195.105 153.17 195.432C155.349 196.194 157.583 196.14 159.927 195.159C161.997 194.287 188.644 168.349 192.84 163.118C195.129 160.284 195.837 157.832 195.238 154.671C194.911 152.873 189.734 147.478 149.028 106.664C122.327 79.9626 102.437 60.3999 101.402 59.964C98.9498 58.9286 96.4432 59.0376 93.8821 60.2909Z" fill="black"/>
</g>
<path fill-rule="evenodd" clip-rule="evenodd" d="M119 278C104.641 278 93 289.641 93 304V358C93 372.359 104.641 384 119 384H306C320.359 384 332 372.359 332 358V304C332 289.641 320.359 278 306 278H119ZM132.223 367V342.136C134.591 342.392 137.631 342.52 141.343 342.52C150.431 342.52 157.279 340.472 161.887 336.376C166.559 332.28 168.895 326.232 168.895 318.232C168.895 311 166.495 305.496 161.695 301.72C156.895 297.88 149.695 295.96 140.095 295.96C132.671 295.96 125.631 296.44 118.975 297.4V367H132.223ZM140.095 332.344C137.279 332.344 134.655 332.152 132.223 331.768V307C134.591 306.616 137.215 306.424 140.095 306.424C150.719 306.424 156.031 310.68 156.031 319.192C156.031 323.416 154.655 326.68 151.903 328.984C149.215 331.224 145.279 332.344 140.095 332.344ZM192.696 324.952V307.768H222.744V296.92H179.256V367H222.744V356.152H192.696V335.224H220.824V324.952H192.696ZM292.688 319.672H292.88V367H306.032V296.92H292.208L271.376 338.2H271.184L250.352 296.92H236.912V367H249.68V319.672H249.872L265.232 349.432H277.328L292.688 319.672Z" fill="black"/>
<defs>
<filter id="filter0_i_102_96" x="0" y="-0.00012207" width="278.885" height="258.71" filterUnits="userSpaceOnUse" color-interpolation-filters="sRGB">
<feFlood flood-opacity="0" result="BackgroundImageFix"/>
<feBlend mode="normal" in="SourceGraphic" in2="BackgroundImageFix" result="shape"/>
<feColorMatrix in="SourceAlpha" type="matrix" values="0 0 0 0 0 0 0 0 0 0 0 0 0 0 0 0 0 0 127 0" result="hardAlpha"/>
<feOffset dy="4"/>
<feGaussianBlur stdDeviation="2"/>
<feComposite in2="hardAlpha" operator="arithmetic" k2="-1" k3="1"/>
<feColorMatrix type="matrix" values="0 0 0 0 0 0 0 0 0 0 0 0 0 0 0 0 0 0 0.25 0"/>
<feBlend mode="normal" in2="shape" result="effect1_innerShadow_102_96"/>
</filter>
</defs>
</svg>
